<svg width="27" height="27" viewBox="0 0 27 27" fill="none" xmlns="http://www.w3.org/2000/svg">
<path d="M21.375 3.375H5.625C4.37625 3.375 3.375 4.3875 3.375 5.625V21.375C3.375 22.6125 4.37625 23.625 5.625 23.625H21.375C22.6125 23.625 23.625 22.6125 23.625 21.375V5.625C23.625 4.3875 22.6125 3.375 21.375 3.375ZM18 14.625H14.625V18C14.625 18.6187 14.1187 19.125 13.5 19.125C12.8813 19.125 12.375 18.6187 12.375 18V14.625H9C8.38125 14.625 7.875 14.1187 7.875 13.5C7.875 12.8813 8.38125 12.375 9 12.375H12.375V9C12.375 8.38125 12.8813 7.875 13.5 7.875C14.1187 7.875 14.625 8.38125 14.625 9V12.375H18C18.6187 12.375 19.125 12.8813 19.125 13.5C19.125 14.1187 18.6187 14.625 18 14.625Z" fill="#757575"/>
</svg>
