<svg width="27" height="27" viewBox="0 0 27 27" fill="none" xmlns="http://www.w3.org/2000/svg">
<path d="M20.5871 6.42375C20.1483 5.985 19.4396 5.985 19.0008 6.42375L13.4996 11.9137L7.99832 6.4125C7.55957 5.97375 6.85082 5.97375 6.41207 6.4125C5.97332 6.85125 5.97332 7.56 6.41207 7.99875L11.9133 13.5L6.41207 19.0012C5.97332 19.44 5.97332 20.1487 6.41207 20.5875C6.85082 21.0262 7.55957 21.0262 7.99832 20.5875L13.4996 15.0862L19.0008 20.5875C19.4396 21.0262 20.1483 21.0262 20.5871 20.5875C21.0258 20.1487 21.0258 19.44 20.5871 19.0012L15.0858 13.5L20.5871 7.99875C21.0146 7.57125 21.0146 6.85125 20.5871 6.42375V6.42375Z" fill="black"/>
</svg>
