<svg width="102" height="123" viewBox="0 0 102 123" fill="none" xmlns="http://www.w3.org/2000/svg">
<g clip-path="url(#clip0_6_262)">
<path d="M0.728984 58.7734C1.10377 59.3993 1.61123 59.9355 2.21562 60.344C2.82002 60.7526 3.50665 61.0237 4.22714 61.1382C4.94764 61.2527 5.68447 61.2078 6.38576 61.0067C7.08704 60.8057 7.7357 60.4533 8.28606 59.9744L23.6691 68.7972L23.0958 59.5997L8.57568 52.6315C7.7099 51.7603 6.55461 51.2369 5.32871 51.1605C4.10282 51.0842 2.89151 51.4601 1.9243 52.2172C0.957094 52.9743 0.301193 54.0598 0.0808887 55.2682C-0.139416 56.4765 0.0911815 57.7237 0.728984 58.7734Z" fill="#FFB8B8"/>
<path d="M45.2648 94.1172C40.7017 100.504 40.8649 111.189 42.138 122.883H63.7126L64.6506 120.695L65.9013 122.883H86.2252C86.2252 122.883 84.6619 93.1791 81.8478 92.2411C79.0337 91.3031 45.2648 94.1172 45.2648 94.1172Z" fill="#2F2E41"/>
<path d="M63.7127 27.3899C69.7567 27.3899 74.6564 22.4903 74.6564 16.4463C74.6564 10.4023 69.7567 5.50262 63.7127 5.50262C57.6687 5.50262 52.769 10.4023 52.769 16.4463C52.769 22.4903 57.6687 27.3899 63.7127 27.3899Z" fill="#FFB8B8"/>
<path d="M71.6221 30.2293L73.7622 34.3311L88.5644 40.9297L84.6735 78.5838L83.0359 82.483L83.9207 85.8692L81.7875 88.3683C83.9288 90.3057 84.2008 92.3339 83.0359 94.4319L76.2195 95.9933C76.2195 95.9933 38.3183 99.3636 41.5125 93.4919C45.0026 87.0763 45.8913 68.1292 38.1867 58.0043C31.6456 49.4085 36.6674 38.2546 36.6674 38.2546L52.183 33.6177L57.8899 30.2292L71.6221 30.2293Z" fill="#3F3D56"/>
<path d="M68.5712 0.415556C68.6226 0.306747 68.7054 0.215793 68.8089 0.154375C68.9124 0.0929562 69.0319 0.0638769 69.152 0.0708727C64.1418 -0.228823 58.8645 0.35513 54.673 3.11609C53.6575 3.78498 52.7001 4.58281 51.5951 5.06804C51.543 5.09148 51.4978 5.128 51.4639 5.17407C51.43 5.22014 51.4086 5.27418 51.4018 5.33095C51.395 5.38772 51.403 5.44528 51.425 5.49806C51.447 5.55083 51.4823 5.59702 51.5274 5.63213L51.6488 5.72731C51.6967 5.76486 51.7333 5.81482 51.7548 5.87176C51.7763 5.9287 51.7817 5.99044 51.7706 6.05026C51.7594 6.11008 51.732 6.16569 51.6914 6.21105C51.6509 6.2564 51.5987 6.28977 51.5405 6.30751C51.4798 6.32601 51.4256 6.36146 51.3844 6.40969C51.3432 6.45793 51.3167 6.51693 51.3079 6.57975C51.2991 6.64257 51.3085 6.7066 51.3349 6.76428C51.3612 6.82197 51.4036 6.87091 51.4568 6.90534L52.3869 7.50648C52.4338 7.53622 52.4724 7.57725 52.4993 7.6258C52.5261 7.67436 52.5404 7.72888 52.5407 7.78437C52.541 7.83986 52.5273 7.89453 52.501 7.94338C52.4747 7.99222 52.4365 8.03367 52.39 8.06392C52.3112 8.11258 52.2285 8.15453 52.1427 8.18933C52.0893 8.20938 52.0419 8.24286 52.0052 8.28652C51.9685 8.33018 51.9437 8.38256 51.9331 8.43861C51.9225 8.49466 51.9266 8.55249 51.9449 8.60652C51.9631 8.66055 51.995 8.70897 52.0374 8.7471C52.4402 9.10566 52.7491 9.5573 52.9373 10.0626C53.2473 10.8687 53.303 11.7466 53.3554 12.6086C53.6758 11.3648 55.0332 10.6326 56.3154 10.5582C57.5977 10.4838 58.8482 10.9069 60.0961 11.211C62.814 11.8715 65.6369 11.9801 68.3975 11.5304C67.4601 13.4116 68.2508 15.6556 69.0466 17.6011L71.6223 16.497C75.1599 14.5002 72.6958 22.9472 71.3732 24.1068C74.0736 25.043 81.1414 14.6523 78.8677 10.7109C77.6849 8.66062 78.5245 6.01626 76.1992 4.07173C75.0595 2.87201 72.7842 3.40524 71.6223 2.40813C71.1651 2.01568 71.8621 0.965744 71.2336 0.736928C71.0249 0.660928 68.6057 0.338958 68.5712 0.415556Z" fill="#2F2E41"/>
<path d="M50.0342 34.6771C48.026 43.5923 42.8756 64.4082 37.6502 68.7615C37.3188 69.0745 36.9214 69.3091 36.4874 69.4481C18.1201 73.9227 12.2349 62.5089 12.2349 62.5089C12.2349 62.5089 17.1571 60.1102 17.2819 55.4216L27.2083 58.5016L35.8614 39.0286L37.1348 37.8408L37.1419 37.8337L50.0342 34.6771Z" fill="#3F3D56"/>
<path d="M89.1959 117.005C89.7219 116.499 90.1306 115.885 90.3932 115.204C90.6559 114.523 90.7661 113.793 90.7161 113.066C90.6662 112.338 90.4572 111.63 90.1041 110.991C89.7509 110.353 89.262 109.8 88.6719 109.371L93.821 92.4013L84.9862 95.0223L81.451 110.735C80.7961 111.774 80.5451 113.017 80.7455 114.229C80.9459 115.441 81.584 116.537 82.5386 117.31C83.4933 118.083 84.6983 118.479 85.9252 118.422C87.1522 118.366 88.316 117.862 89.1959 117.005Z" fill="#FFB8B8"/>
<path d="M84.4834 39.9803L88.5644 40.9296C88.5644 40.9296 105.433 73.7493 101.368 80.0028C97.303 86.2563 92.3234 106.96 92.3234 106.96C92.3234 106.96 84.9583 105.496 82.1442 101.744L87.2974 77.1887L81.9819 56.5521L84.4834 39.9803Z" fill="#3F3D56"/>
<path d="M7.0586 88.7165L7.20514 35.8584C7.20932 34.7885 7.6377 33.764 8.39629 33.0096C9.15488 32.2552 10.1817 31.8325 11.2516 31.8343L51.1711 31.945C52.241 31.9491 53.2655 32.3775 54.0199 33.1361C54.7743 33.8947 55.1969 34.9216 55.1952 35.9914L55.0486 88.8495C55.0445 89.9193 54.6161 90.9439 53.8575 91.6983C53.0989 92.4527 52.0721 92.8753 51.0022 92.8736L11.0827 92.7629C10.0128 92.7587 8.98832 92.3304 8.23393 91.5718C7.47953 90.8132 7.05684 89.7863 7.0586 88.7165Z" fill="#E6E6E6"/>
<path d="M10.1651 72.7596L10.2593 38.7776C10.2632 37.7757 10.6643 36.8162 11.3748 36.1097C12.0852 35.4032 13.0469 35.0073 14.0489 35.009L48.3564 35.1041C49.3584 35.108 50.3179 35.5091 51.0244 36.2196C51.731 36.93 52.1269 37.8917 52.1252 38.8937L51.9948 85.9302C51.9909 86.9322 51.5897 87.8917 50.8792 88.5982C50.1687 89.3047 49.207 89.7006 48.205 89.6989L26.9522 89.64C22.4892 89.6226 18.2153 87.8356 15.0682 84.671C11.9211 81.5064 10.1578 77.2227 10.1651 72.7596Z" fill="white"/>
<path d="M44.4254 49.9358H17.6744C17.2487 49.9358 16.8405 49.7667 16.5394 49.4657C16.2384 49.1647 16.0693 48.7565 16.0693 48.3308C16.0693 47.9051 16.2384 47.4968 16.5394 47.1958C16.8405 46.8948 17.2487 46.7257 17.6744 46.7257H44.4254C44.8511 46.7257 45.2594 46.8948 45.5604 47.1958C45.8614 47.4968 46.0305 47.9051 46.0305 48.3308C46.0305 48.7565 45.8614 49.1647 45.5604 49.4657C45.2594 49.7667 44.8511 49.9358 44.4254 49.9358Z" fill="#B8405E"/>
<path d="M23.5596 42.5347H17.6744C17.2487 42.5347 16.8405 42.3656 16.5395 42.0646C16.2384 41.7636 16.0693 41.3553 16.0693 40.9296C16.0693 40.504 16.2384 40.0957 16.5395 39.7947C16.8405 39.4937 17.2487 39.3246 17.6744 39.3246H23.5596C23.9853 39.3246 24.3936 39.4937 24.6946 39.7947C24.9956 40.0957 25.1647 40.504 25.1647 40.9296C25.1647 41.3553 24.9956 41.7636 24.6946 42.0646C24.3936 42.3656 23.9853 42.5347 23.5596 42.5347Z" fill="#B8405E"/>
<path d="M44.4254 57.337H17.6744C17.2487 57.337 16.8405 57.1679 16.5394 56.8669C16.2384 56.5658 16.0693 56.1576 16.0693 55.7319C16.0693 55.3062 16.2384 54.898 16.5394 54.5969C16.8405 54.2959 17.2487 54.1268 17.6744 54.1268H44.4254C44.8511 54.1268 45.2594 54.2959 45.5604 54.5969C45.8614 54.898 46.0305 55.3062 46.0305 55.7319C46.0305 56.1576 45.8614 56.5658 45.5604 56.8669C45.2594 57.1679 44.8511 57.337 44.4254 57.337Z" fill="#B8405E"/>
<path d="M44.4254 64.7381H17.6744C17.2487 64.7381 16.8405 64.569 16.5394 64.268C16.2384 63.967 16.0693 63.5587 16.0693 63.133C16.0693 62.7073 16.2384 62.2991 16.5394 61.9981C16.8405 61.6971 17.2487 61.528 17.6744 61.528H44.4254C44.8511 61.528 45.2594 61.6971 45.5604 61.9981C45.8614 62.2991 46.0305 62.7073 46.0305 63.133C46.0305 63.5587 45.8614 63.967 45.5604 64.268C45.2594 64.569 44.8511 64.7381 44.4254 64.7381Z" fill="#B8405E"/>
<path d="M42.2606 84.2398C45.7877 84.2398 48.6471 81.3804 48.6471 77.8532C48.6471 74.326 45.7877 71.4667 42.2606 71.4667C38.7334 71.4667 35.874 74.326 35.874 77.8532C35.874 81.3804 38.7334 84.2398 42.2606 84.2398Z" fill="#B8405E"/>
<path d="M41.3892 81.1771C41.279 81.1771 41.1702 81.1514 41.0716 81.1021C40.9729 81.0528 40.8871 80.9811 40.821 80.8929L39.0786 78.5697C39.0225 78.4951 38.9817 78.4101 38.9584 78.3197C38.9352 78.2293 38.93 78.1352 38.9431 78.0427C38.9563 77.9503 38.9875 77.8614 39.0351 77.781C39.0826 77.7007 39.1455 77.6305 39.2202 77.5745C39.2949 77.5184 39.3799 77.4777 39.4704 77.4546C39.5608 77.4314 39.6549 77.4263 39.7474 77.4396C39.8398 77.4529 39.9287 77.4842 40.009 77.5319C40.0893 77.5795 40.1594 77.6425 40.2153 77.7173L41.3552 79.237L44.2829 74.8455C44.3345 74.7676 44.401 74.7006 44.4785 74.6484C44.5561 74.5962 44.6432 74.5598 44.7348 74.5414C44.8265 74.5229 44.9208 74.5227 45.0126 74.5407C45.1043 74.5588 45.1915 74.5948 45.2693 74.6467C45.3471 74.6985 45.4139 74.7652 45.4658 74.8429C45.5178 74.9206 45.5539 75.0078 45.5721 75.0995C45.5903 75.1912 45.5902 75.2856 45.5718 75.3773C45.5535 75.4689 45.5172 75.5561 45.4651 75.6337L41.9804 80.8607C41.9174 80.9553 41.8326 81.0333 41.7332 81.0883C41.6338 81.1433 41.5226 81.1737 41.409 81.1769C41.4024 81.177 41.3958 81.1771 41.3892 81.1771Z" fill="white"/>
<path d="M28.6421 19.5288C30.3165 19.5288 31.6739 18.1714 31.6739 16.497C31.6739 14.8226 30.3165 13.4652 28.6421 13.4652C26.9677 13.4652 25.6104 14.8226 25.6104 16.497C25.6104 18.1714 26.9677 19.5288 28.6421 19.5288Z" fill="#F2F2F2"/>
<path d="M17.585 106.737C19.2594 106.737 20.6168 105.38 20.6168 103.706C20.6168 102.031 19.2594 100.674 17.585 100.674C15.9106 100.674 14.5532 102.031 14.5532 103.706C14.5532 105.38 15.9106 106.737 17.585 106.737Z" fill="#F2F2F2"/>
<path d="M87.316 31.2993C88.9904 31.2993 90.3478 29.9419 90.3478 28.2675C90.3478 26.5931 88.9904 25.2357 87.316 25.2357C85.6416 25.2357 84.2842 26.5931 84.2842 28.2675C84.2842 29.9419 85.6416 31.2993 87.316 31.2993Z" fill="#F2F2F2"/>
</g>
<defs>
<clipPath id="clip0_6_262">
<rect width="102" height="122.883" fill="white"/>
</clipPath>
</defs>
</svg>
