<svg width="164" height="119" viewBox="0 0 164 119" fill="none" xmlns="http://www.w3.org/2000/svg">
<g clip-path="url(#clip0_6_34)">
<path opacity="0.1" d="M95.2869 20.8418C84.7732 20.4764 74.7517 17.0821 65.1967 13.3691C55.6418 9.65614 46.1714 5.54153 35.9037 3.57407C29.3022 2.30722 21.7525 2.12905 16.4344 5.66836C11.3157 9.0733 9.66232 14.9515 8.77296 20.4055C8.10405 24.5095 7.716 28.8279 9.54454 32.6708C10.8174 35.3373 13.0763 37.5796 14.6391 40.1344C20.0749 49.0235 16.2321 59.9857 10.3403 68.6724C7.57708 72.7493 4.37146 76.6283 2.23941 80.9634C0.107366 85.2985 -0.88014 90.2647 0.986156 94.6858C2.83584 99.0646 7.24187 102.359 12.0163 104.674C21.7132 109.372 33.139 110.715 44.2809 111.485C68.9444 113.172 93.7408 112.441 118.469 111.71C127.621 111.439 136.814 111.165 145.816 109.748C150.815 108.961 155.978 107.714 159.608 104.703C164.215 100.88 165.358 94.408 162.27 89.6139C157.091 81.5749 142.772 79.5773 139.151 70.9494C137.159 66.2006 139.205 60.9098 142.101 56.5053C148.312 47.0575 158.724 38.7679 159.273 27.9673C159.65 20.5489 154.645 13.1215 146.905 9.61084C138.793 5.92808 127.544 6.39314 121.56 12.4797C115.398 18.7505 104.569 21.1634 95.2869 20.8418Z" fill="#B8405E"/>
<path d="M36.5784 109.477C36.5784 109.477 28.2737 103.199 26.7049 95.2128C26.0687 91.8586 24.3622 88.8012 21.8413 86.4989C20.6354 85.4159 19.3329 84.4455 17.9502 83.5998" stroke="#535461" stroke-width="2" stroke-miterlimit="10"/>
<path d="M16.934 78.5686C17.6618 79.5531 17.991 83.7251 17.991 83.7251C17.991 83.7251 14.0998 82.1925 13.3705 81.2095C13.0203 80.737 12.8722 80.1447 12.9587 79.5629C13.0452 78.9811 13.3593 78.4576 13.8318 78.1074C14.3044 77.7572 14.8967 77.609 15.4785 77.6955C16.0602 77.782 16.5838 78.0961 16.934 78.5686V78.5686Z" fill="#B8405E"/>
<path d="M23.9128 81.8422C23.9883 83.0638 21.9997 86.745 21.9997 86.745C21.9997 86.745 19.5642 83.3416 19.4872 82.1201C19.4579 81.5377 19.6592 80.9673 20.0476 80.5323C20.436 80.0974 20.9801 79.833 21.5621 79.7965C22.144 79.7599 22.7169 79.9542 23.1566 80.3371C23.5964 80.72 23.8675 81.2608 23.9113 81.8422H23.9128Z" fill="#B8405E"/>
<path d="M30.6778 91.2522C30.1282 92.3454 26.5511 94.5197 26.5511 94.5197C26.5511 94.5197 26.1691 90.3523 26.7187 89.259C26.9893 88.745 27.4508 88.3576 28.0041 88.1804C28.5574 88.0032 29.1581 88.0503 29.677 88.3115C30.1959 88.5727 30.5915 89.0272 30.7786 89.5772C30.9658 90.1272 30.9296 90.7287 30.6778 91.2522V91.2522Z" fill="#B8405E"/>
<path d="M34.1943 99.5206C33.8364 100.691 30.6791 103.437 30.6791 103.437C30.6791 103.437 29.5965 99.3953 29.9544 98.2236C30.1264 97.6613 30.5147 97.1904 31.0339 96.9145C31.5531 96.6385 32.1606 96.5801 32.7229 96.7521C33.2851 96.9241 33.756 97.3124 34.032 97.8316C34.3079 98.3508 34.3663 98.9584 34.1943 99.5206V99.5206Z" fill="#B8405E"/>
<path d="M18.4 89.7045C19.608 89.8676 23.4267 88.1432 23.4267 88.1432C23.4267 88.1432 20.2044 85.4736 18.9904 85.3105C18.4078 85.2322 17.8179 85.3886 17.3505 85.7453C16.8831 86.1019 16.5766 86.6296 16.4983 87.2123C16.42 87.795 16.5764 88.3849 16.933 88.8523C17.2897 89.3197 17.8174 89.6262 18.4 89.7045V89.7045Z" fill="#B8405E"/>
<path d="M22.6359 99.3244C23.8438 99.1175 26.9649 96.3316 26.9649 96.3316C26.9649 96.3316 23.0904 94.7492 21.8839 94.9561C21.5951 95.0034 21.3185 95.1075 21.07 95.2623C20.8216 95.4172 20.6064 95.6196 20.4366 95.8581C20.2669 96.0966 20.1461 96.3663 20.0811 96.6517C20.0162 96.9371 20.0084 97.2326 20.0583 97.521C20.1081 97.8094 20.2146 98.0851 20.3716 98.3322C20.5285 98.5792 20.7329 98.7928 20.9728 98.9604C21.2127 99.1281 21.4835 99.2466 21.7694 99.309C22.0554 99.3715 22.3509 99.3767 22.6389 99.3244H22.6359Z" fill="#B8405E"/>
<path d="M28.0335 108.111C29.2581 108.111 32.8065 105.893 32.8065 105.893C32.8065 105.893 29.2566 103.678 28.032 103.678C27.4442 103.678 26.8804 103.911 26.4647 104.327C26.049 104.742 25.8154 105.306 25.8154 105.894C25.8154 106.482 26.049 107.046 26.4647 107.462C26.8804 107.877 27.4442 108.111 28.032 108.111H28.0335Z" fill="#B8405E"/>
<path d="M117.255 55.175C117.255 55.175 122.374 46.1078 130.089 43.4956C133.329 42.4196 136.133 40.3221 138.08 37.5177C138.993 36.177 139.781 34.7552 140.434 33.2702" stroke="#535461" stroke-width="2" stroke-miterlimit="10"/>
<path d="M145.278 31.6092C144.399 32.4609 140.309 33.3427 140.309 33.3427C140.309 33.3427 141.313 29.2809 142.192 28.4278C142.616 28.0306 143.179 27.816 143.76 27.8299C144.341 27.8439 144.893 28.0854 145.298 28.5025C145.702 28.9195 145.927 29.4788 145.923 30.0599C145.92 30.6409 145.688 31.1973 145.278 31.6092Z" fill="#B8405E"/>
<path d="M142.965 38.9521C141.757 39.1907 137.851 37.7079 137.851 37.7079C137.851 37.7079 140.901 34.839 142.101 34.605C142.389 34.541 142.687 34.5352 142.978 34.5881C143.268 34.6409 143.545 34.7512 143.793 34.9126C144.04 35.0739 144.252 35.283 144.418 35.5276C144.583 35.7722 144.698 36.0474 144.755 36.337C144.813 36.6265 144.812 36.9247 144.753 37.2139C144.693 37.5032 144.577 37.7776 144.41 38.0212C144.243 38.2648 144.03 38.4727 143.781 38.6325C143.533 38.7924 143.256 38.901 142.965 38.9521V38.9521Z" fill="#B8405E"/>
<path d="M134.545 46.9065C133.389 46.5064 130.76 43.2509 130.76 43.2509C130.76 43.2509 134.837 42.3178 135.996 42.7179C136.275 42.8103 136.532 42.9572 136.754 43.1499C136.975 43.3427 137.156 43.5775 137.286 43.8407C137.416 44.1039 137.492 44.3903 137.511 44.6833C137.529 44.9763 137.489 45.27 137.393 45.5474C137.297 45.8247 137.147 46.0803 136.951 46.2991C136.755 46.518 136.518 46.6958 136.253 46.8222C135.988 46.9487 135.701 47.0212 135.408 47.0357C135.114 47.0502 134.821 47.0062 134.545 46.9065V46.9065Z" fill="#B8405E"/>
<path d="M126.808 51.4907C125.6 51.2914 122.466 48.5207 122.466 48.5207C122.466 48.5207 126.33 46.911 127.536 47.1104C128.117 47.2059 128.636 47.5281 128.979 48.0063C129.322 48.4844 129.461 49.0792 129.366 49.6599C129.27 50.2406 128.948 50.7595 128.47 51.1026C127.991 51.4457 127.397 51.5847 126.816 51.4892L126.808 51.4907Z" fill="#B8405E"/>
<path d="M134.44 34.5325C134.438 35.7571 136.66 39.31 136.66 39.31C136.66 39.31 138.878 35.7616 138.878 34.5385C138.885 34.2427 138.834 33.9483 138.726 33.6727C138.618 33.3971 138.456 33.1459 138.249 32.9339C138.043 32.7219 137.796 32.5534 137.523 32.4384C137.251 32.3234 136.958 32.2641 136.662 32.2641C136.366 32.2641 136.073 32.3234 135.8 32.4384C135.528 32.5534 135.281 32.7219 135.074 32.9339C134.868 33.1459 134.706 33.3971 134.598 33.6727C134.49 33.9483 134.438 34.2427 134.446 34.5385L134.44 34.5325Z" fill="#B8405E"/>
<path d="M125.466 40.0076C125.832 41.1763 129.008 43.9017 129.008 43.9017C129.008 43.9017 130.065 39.852 129.697 38.6833C129.506 38.1419 129.112 37.6957 128.599 37.4387C128.085 37.1817 127.492 37.134 126.944 37.3056C126.396 37.4772 125.936 37.8548 125.661 38.3588C125.386 38.8628 125.317 39.4538 125.469 40.0076H125.466Z" fill="#B8405E"/>
<path d="M117.483 46.526C117.646 47.734 120.316 50.9607 120.316 50.9607C120.316 50.9607 122.039 47.1481 121.876 45.9356C121.843 45.6419 121.752 45.3575 121.609 45.0993C121.465 44.8412 121.271 44.6144 121.038 44.4323C120.805 44.2502 120.538 44.1165 120.253 44.0391C119.968 43.9617 119.67 43.9421 119.377 43.9814C119.084 44.0208 118.802 44.1184 118.547 44.2683C118.293 44.4183 118.07 44.6177 117.894 44.8548C117.718 45.0919 117.59 45.3619 117.52 45.6489C117.449 45.9359 117.437 46.2341 117.483 46.526V46.526Z" fill="#B8405E"/>
<path opacity="0.25" d="M145.278 31.6092C144.399 32.4609 140.309 33.3427 140.309 33.3427C140.309 33.3427 141.313 29.2809 142.192 28.4278C142.616 28.0306 143.179 27.816 143.76 27.8299C144.341 27.8439 144.893 28.0854 145.298 28.5025C145.702 28.9195 145.927 29.4788 145.923 30.0599C145.92 30.6409 145.688 31.1973 145.278 31.6092Z" fill="black"/>
<path opacity="0.25" d="M142.965 38.9521C141.757 39.1907 137.851 37.7079 137.851 37.7079C137.851 37.7079 140.901 34.839 142.101 34.605C142.389 34.541 142.687 34.5352 142.978 34.5881C143.268 34.6409 143.545 34.7512 143.793 34.9126C144.04 35.0739 144.252 35.283 144.418 35.5276C144.583 35.7722 144.698 36.0474 144.755 36.337C144.813 36.6265 144.812 36.9247 144.753 37.2139C144.693 37.5032 144.577 37.7776 144.41 38.0212C144.243 38.2648 144.03 38.4727 143.781 38.6325C143.533 38.7924 143.256 38.901 142.965 38.9521V38.9521Z" fill="black"/>
<path opacity="0.25" d="M134.545 46.9065C133.389 46.5064 130.76 43.2509 130.76 43.2509C130.76 43.2509 134.837 42.3178 135.996 42.7179C136.275 42.8103 136.532 42.9572 136.754 43.1499C136.975 43.3427 137.156 43.5775 137.286 43.8407C137.416 44.1039 137.492 44.3903 137.511 44.6833C137.529 44.9763 137.489 45.27 137.393 45.5474C137.297 45.8247 137.147 46.0803 136.951 46.2991C136.755 46.518 136.518 46.6958 136.253 46.8222C135.988 46.9487 135.701 47.0212 135.408 47.0357C135.114 47.0502 134.821 47.0062 134.545 46.9065V46.9065Z" fill="black"/>
<path opacity="0.25" d="M126.808 51.4907C125.6 51.2914 122.466 48.5207 122.466 48.5207C122.466 48.5207 126.33 46.911 127.536 47.1104C128.117 47.2059 128.636 47.5281 128.979 48.0063C129.322 48.4844 129.461 49.0792 129.366 49.6599C129.27 50.2406 128.948 50.7595 128.47 51.1026C127.991 51.4457 127.397 51.5847 126.816 51.4892L126.808 51.4907Z" fill="black"/>
<path opacity="0.25" d="M134.44 34.5325C134.438 35.7571 136.66 39.31 136.66 39.31C136.66 39.31 138.878 35.7616 138.878 34.5385C138.885 34.2427 138.834 33.9483 138.726 33.6727C138.618 33.3971 138.456 33.1459 138.249 32.9339C138.043 32.7219 137.796 32.5534 137.523 32.4384C137.251 32.3234 136.958 32.2641 136.662 32.2641C136.366 32.2641 136.073 32.3234 135.8 32.4384C135.528 32.5534 135.281 32.7219 135.074 32.9339C134.868 33.1459 134.706 33.3971 134.598 33.6727C134.49 33.9483 134.438 34.2427 134.446 34.5385L134.44 34.5325Z" fill="black"/>
<path opacity="0.25" d="M125.466 40.0076C125.832 41.1763 129.008 43.9017 129.008 43.9017C129.008 43.9017 130.065 39.852 129.697 38.6833C129.506 38.1419 129.112 37.6957 128.599 37.4387C128.085 37.1817 127.492 37.134 126.944 37.3056C126.396 37.4772 125.936 37.8548 125.661 38.3588C125.386 38.8628 125.317 39.4538 125.469 40.0076H125.466Z" fill="black"/>
<path opacity="0.25" d="M117.483 46.526C117.646 47.734 120.316 50.9607 120.316 50.9607C120.316 50.9607 122.039 47.1481 121.876 45.9356C121.843 45.6419 121.752 45.3575 121.609 45.0993C121.465 44.8412 121.271 44.6144 121.038 44.4323C120.805 44.2502 120.538 44.1165 120.253 44.0391C119.968 43.9617 119.67 43.9421 119.377 43.9814C119.084 44.0208 118.802 44.1184 118.547 44.2683C118.293 44.4183 118.07 44.6177 117.894 44.8548C117.718 45.0919 117.59 45.3619 117.52 45.6489C117.449 45.9359 117.437 46.2341 117.483 46.526V46.526Z" fill="black"/>
<path d="M117.549 54.9953C117.549 54.9953 118.555 44.631 124.543 39.1197C127.069 36.8228 128.783 33.7691 129.427 30.4164C129.72 28.8225 129.866 27.2051 129.863 25.5845" stroke="#535461" stroke-width="2" stroke-miterlimit="10"/>
<path d="M133.617 22.0875C133.164 23.223 129.775 25.6872 129.775 25.6872C129.775 25.6872 129.048 21.5666 129.505 20.4311C129.725 19.8859 130.153 19.4505 130.694 19.2207C131.236 18.9909 131.846 18.9855 132.391 19.2058C132.937 19.426 133.372 19.8539 133.602 20.3951C133.832 20.9364 133.837 21.5468 133.617 22.092V22.0875Z" fill="#B8405E"/>
<path d="M134.479 29.746C133.478 30.4496 129.3 30.6806 129.3 30.6806C129.3 30.6806 130.928 26.8242 131.929 26.1206C132.166 25.9429 132.437 25.8146 132.725 25.7434C133.012 25.6722 133.312 25.6595 133.605 25.706C133.897 25.7526 134.178 25.8574 134.43 26.0143C134.681 26.1712 134.899 26.377 135.07 26.6195C135.24 26.862 135.361 27.1363 135.423 27.4261C135.486 27.716 135.49 28.0154 135.435 28.3068C135.38 28.5982 135.267 28.8756 135.103 29.1225C134.938 29.3695 134.726 29.5809 134.479 29.7444V29.746Z" fill="#B8405E"/>
<path d="M130 40.4334C128.78 40.5361 125.057 38.6214 125.057 38.6214C125.057 38.6214 128.409 36.1149 129.629 36.0123C130.215 35.963 130.796 36.1485 131.245 36.5279C131.694 36.9074 131.974 37.4497 132.024 38.0356C132.073 38.6215 131.887 39.2029 131.508 39.652C131.128 40.1011 130.586 40.3811 130 40.4304V40.4334Z" fill="#B8405E"/>
<path d="M124.789 47.7551C123.604 48.0571 119.612 46.8084 119.612 46.8084C119.612 46.8084 122.491 43.7719 123.677 43.4639C124.246 43.3163 124.85 43.4008 125.357 43.6989C125.864 43.9969 126.231 44.484 126.379 45.0531C126.526 45.6221 126.442 46.2265 126.144 46.7332C125.846 47.24 125.358 47.6076 124.789 47.7551V47.7551Z" fill="#B8405E"/>
<path d="M124.895 29.1601C125.391 30.279 128.855 32.633 128.855 32.633C128.855 32.633 129.444 28.4897 128.948 27.3708C128.701 26.8473 128.26 26.4411 127.717 26.239C127.175 26.0369 126.575 26.0549 126.046 26.2891C125.517 26.5233 125.1 26.9553 124.885 27.4926C124.67 28.0299 124.674 28.63 124.895 29.1646V29.1601Z" fill="#B8405E"/>
<path d="M118.91 37.8C119.718 38.7196 123.725 39.9245 123.725 39.9245C123.725 39.9245 123.049 35.7948 122.241 34.8753C122.05 34.6519 121.817 34.4686 121.555 34.3361C121.293 34.2036 121.007 34.1245 120.714 34.1034C120.421 34.0824 120.127 34.1197 119.849 34.2133C119.57 34.3069 119.313 34.4549 119.092 34.6487C118.872 34.8425 118.692 35.0782 118.563 35.3421C118.434 35.6061 118.359 35.893 118.342 36.1862C118.325 36.4794 118.367 36.7731 118.464 37.0501C118.562 37.3272 118.713 37.5821 118.91 37.8V37.8Z" fill="#B8405E"/>
<path d="M114.246 46.9986C114.886 48.0405 118.632 49.9053 118.632 49.9053C118.632 49.9053 118.664 45.7212 118.028 44.6778C117.712 44.1961 117.22 43.8565 116.658 43.7312C116.095 43.6059 115.506 43.7046 115.015 44.0065C114.524 44.3084 114.17 44.7896 114.027 45.3482C113.885 45.9068 113.966 46.4988 114.253 46.9986H114.246Z" fill="#B8405E"/>
<path d="M109.849 14.4064C110.099 13.4868 110.401 12.5627 110.613 11.6311C110.359 12.5627 110.055 13.4899 109.849 14.4064Z" fill="url(#paint0_linear_6_34)"/>
<path d="M108.725 23.2637C108.704 23.2275 108.689 23.1913 108.672 23.158C108.672 23.1429 108.657 23.1309 108.651 23.1158C108.618 23.1313 108.585 23.1449 108.55 23.1565C108.484 23.1822 108.416 23.2064 108.346 23.226C108.277 23.2456 108.248 23.2562 108.195 23.2683C108.152 23.2834 108.107 23.295 108.061 23.303L108.073 23.3302C108.129 23.3181 108.183 23.3075 108.239 23.2924L108.254 23.4797C108.318 23.4797 108.377 23.4706 108.434 23.4706C108.461 23.4691 108.488 23.4691 108.515 23.4706C108.633 23.4706 108.736 23.4706 108.817 23.4706C108.786 23.4027 108.753 23.3317 108.725 23.2637ZM139.377 72.0547C138.668 71.0989 137.251 60.8403 137.251 60.8403C137.251 60.8403 134.465 53.5457 135.225 50.6346C135.984 47.7234 133.15 40.2748 133.15 40.2748C133.15 40.2748 131.278 39.461 131.177 38.253C131.177 38.253 123.532 35.8371 123.174 34.0251C122.884 32.5393 118.143 31.4733 116.44 31.1366C115.92 29.0408 115.398 27.0854 115.013 26.0179C114.909 25.6857 114.81 25.3988 114.72 25.1723C114.069 23.5114 112.058 23.3604 110.599 23.4933C110.536 23.2102 110.419 22.942 110.253 22.7035C110.229 22.6216 110.181 22.5486 110.116 22.4937C110.085 22.467 110.051 22.4428 110.016 22.4212C109.99 22.3722 109.955 22.3283 109.914 22.2913C109.872 22.254 109.827 22.2216 109.778 22.1947C109.743 22.1757 109.706 22.1591 109.669 22.1449C109.582 22.1115 109.491 22.0868 109.399 22.0709C109.291 22.0488 109.182 22.0346 109.073 22.0286C109.339 21.912 109.577 21.7383 109.769 21.5197C109.899 21.3663 109.996 21.1874 110.054 20.9943C110.102 20.8337 110.123 20.6665 110.118 20.499C110.078 20.568 110.033 20.6332 109.982 20.6938C110.045 20.0249 109.692 19.3454 109.489 18.6795C109.244 17.8126 109.199 16.9015 109.356 16.0145C109.559 14.6767 110.06 13.3238 110.4 11.9618C110.401 11.9543 110.401 11.9467 110.4 11.9391C110.578 11.2627 110.688 10.5703 110.729 9.87201C110.788 8.46323 110.427 7.05747 109.847 5.77401C109.332 4.63702 108.573 3.51815 107.41 3.0561C106.546 2.70731 105.579 2.76317 104.648 2.7058C102.562 2.57594 100.572 1.84211 98.5875 1.17471C96.6035 0.507313 94.562 -0.0996865 92.4738 0.0165795C90.3855 0.132845 88.2369 1.13998 87.2841 2.98816C86.9821 3.56496 86.8084 4.20668 86.4476 4.74876C85.7711 5.77099 84.5601 6.28286 83.55 6.98801C82.5398 7.69315 81.6505 8.69425 81.2851 9.88862C81.0855 10.5321 81.0574 11.2165 81.2035 11.8742V11.8742C81.2364 12.0227 81.2788 12.169 81.3304 12.3121C81.4737 12.7111 81.6972 13.0764 81.9872 13.3857C82.2059 13.6142 82.4573 13.8091 82.7331 13.964V13.964C83.0795 14.156 83.4503 14.3002 83.8354 14.3928C83.8218 14.4381 83.8082 14.4864 83.7931 14.5332C83.7689 14.6102 83.7478 14.6842 83.7251 14.7673C83.6753 14.953 83.6285 15.1417 83.5892 15.332C83.5877 15.3455 83.5877 15.3592 83.5892 15.3727C83.4038 16.2316 83.3106 17.1078 83.3114 17.9865C83.3111 18.402 83.3323 18.8173 83.3748 19.2307V19.2307C83.9788 25.358 89.0371 30.1914 95.2868 30.5054C95.5012 30.516 95.7171 30.5221 95.9361 30.5221C96.0357 30.5221 96.1339 30.5221 96.2381 30.5221C96.3362 30.6519 96.4329 30.7848 96.525 30.9146C96.6171 31.0445 96.7016 31.1774 96.7817 31.3072L96.5627 31.0807L96.3438 30.8799C96.2844 30.9614 96.2182 31.0377 96.146 31.1079C96.0032 31.0577 95.8575 31.0163 95.7096 30.9841V30.9841C95.083 30.8452 94.1287 30.7938 92.8724 31.1728C91.7173 31.5186 90.3055 32.2298 88.6536 33.5812L80.6041 38.413L76.2494 41.0615L74.6805 44.8968C74.6805 44.8968 73.5013 49.4538 72.1891 54.6752C72.1378 54.6903 72.088 54.7054 72.0381 54.7235C71.9319 54.7114 71.825 54.7054 71.718 54.7054C70.9567 54.7036 70.2244 54.9969 69.6748 55.5237C69.1251 56.0505 68.8011 56.7698 68.7706 57.5305C66.1614 60.7014 66.0134 63.8723 66.6265 65.3279C66.682 65.4642 66.7518 65.5943 66.8348 65.7159C67.2365 66.2957 67.9869 67.7906 68.748 69.3836C68.7283 69.515 68.7162 69.6252 68.7102 69.7082C68.7088 69.7354 68.7088 69.7626 68.7102 69.7898C68.7102 69.7898 69.1632 76.6313 67.6532 78.5928C67.3226 79.0201 67.3724 79.5818 67.6532 80.2039C68.6649 82.4416 72.6648 85.4298 72.6648 85.4298C72.6648 85.4298 77.4619 85.4041 80.1345 85.1127C80.1269 85.3815 80.1209 85.6487 80.1148 85.91C80.0544 88.5494 80.0544 90.7614 80.0544 90.7614L79.9548 93.5292C79.9548 93.5292 79.0488 99.3621 78.5958 100.97C78.3105 101.979 78.6396 111.318 78.9265 118.184H126.191C126.747 114.122 125.963 101.781 125.963 101.781C125.963 101.781 125.219 98.5905 125.191 95.8092C125.19 95.8061 125.189 95.8028 125.189 95.7994C125.189 95.796 125.19 95.7926 125.191 95.7896C125.191 95.5465 125.191 95.3094 125.2 95.0769L125.543 95.0648L126.159 95.0436H126.215C126.215 95.0436 126.23 94.9863 126.265 94.8926C126.346 94.6594 126.458 94.4377 126.596 94.2328C126.858 93.8447 127.269 93.4642 127.887 93.4386C128.228 93.425 128.756 93.1487 129.353 92.741C129.357 92.7419 129.361 92.7419 129.365 92.741C130.97 91.6553 133.091 89.6516 133.606 89.3224C134.314 88.8695 137.706 85.8496 137.706 85.8496C137.706 85.8496 138.212 85.2094 138.751 84.4378L138.77 84.4106C139.441 83.4442 140.153 82.2891 139.978 81.9252C139.676 81.2729 140.181 79.7131 140.181 79.7131C141.755 76.8307 140.087 73.0105 139.377 72.0547ZM110.179 25.6117C110.194 25.6568 110.203 25.7034 110.207 25.7506C110.169 25.7008 110.131 25.6479 110.093 25.5996L110.057 25.5513L110.031 25.5151L110.089 25.4366C110.089 25.4366 110.089 25.4366 110.089 25.4471C110.129 25.4961 110.159 25.5518 110.179 25.6117V25.6117ZM109.672 24.2739C109.507 24.3071 109.378 24.3373 109.293 24.36C109.186 24.1697 109.083 23.9795 108.991 23.7862C109.233 23.9266 109.461 24.0899 109.672 24.2739V24.2739ZM109.388 24.5125C109.388 24.5095 109.388 24.5064 109.388 24.5034L109.4 24.5125C109.462 24.5532 109.523 24.5925 109.578 24.6333C109.628 24.6695 109.674 24.7042 109.719 24.7405C109.689 24.7933 109.655 24.8477 109.622 24.8915C109.569 24.8084 109.52 24.7284 109.471 24.6453C109.441 24.6121 109.414 24.5668 109.388 24.5125ZM108.482 22.6492C108.774 22.6204 109.068 22.6204 109.36 22.6492V22.6492C109.4 22.6492 109.437 22.6567 109.473 22.6628C109.555 22.6754 109.635 22.6962 109.713 22.7247C109.891 22.9743 110.001 23.2664 110.031 23.5718L109.95 23.5838L109.87 23.5989C109.719 23.6246 109.568 23.6503 109.45 23.6744L109.299 23.7062C109.098 23.7499 108.982 23.7832 108.977 23.7847C108.958 23.7439 108.938 23.7062 108.917 23.6669C108.884 23.602 108.849 23.5355 108.819 23.4706C108.789 23.4057 108.75 23.3317 108.718 23.2637C108.697 23.2275 108.682 23.1913 108.665 23.158C108.665 23.1429 108.65 23.1309 108.644 23.1158C108.635 23.0997 108.627 23.0831 108.621 23.0659C108.529 22.8787 108.444 22.6915 108.363 22.5073C108.354 22.4891 108.346 22.4695 108.339 22.4514L108.454 22.4438V22.4831L108.482 22.6492ZM72.4564 116.317C72.4443 114.069 72.2812 111.636 71.8283 109.353C71.635 108.383 71.4357 107.412 71.2333 106.457C71.182 106.219 71.1322 105.983 71.0823 105.748L70.6173 105.81H70.575C69.3066 99.8287 67.9809 94.559 67.9809 94.559C67.9809 94.559 65.3475 84.5042 65.6526 83.7024C65.6918 83.5982 65.642 83.3174 65.5303 82.9052C64.8931 80.6191 62.2325 74.3196 61.3024 72.1664C61.3024 72.1574 61.2948 72.1468 61.2918 72.1392C61.1408 71.7784 61.0321 71.5353 60.9989 71.4643L61.2178 68.2511L61.2299 68.0579L61.2586 67.6472L61.2465 67.6366L61.2586 67.4463C61.2586 67.4463 58.9605 65.5619 55.0678 64.2014C54.9168 64.1471 54.7568 64.0942 54.5982 64.0429C54.793 62.7428 55.0512 61.2752 55.3879 59.8452C55.4196 59.7018 55.4544 59.5629 55.4906 59.4225C55.5223 59.282 55.5586 59.1461 55.5948 59.0087C55.6522 58.7853 55.7141 58.5648 55.7775 58.3474C55.9874 58.2809 56.1942 58.207 56.3981 58.1284L56.4766 58.0982C58.9878 57.1211 61.0598 55.2671 62.3091 52.8796C63.5584 50.4922 63.9002 47.7329 63.2714 45.1127V45.1127C62.9128 43.6267 62.2506 42.2309 61.3266 41.0132C61.2571 40.9196 61.1831 40.8259 61.1091 40.7338C61.0351 40.6417 60.946 40.5391 60.863 40.4454C61.2994 39.4534 61.8143 38.5097 61.8566 37.5448C61.8641 37.4226 61.8641 37.3001 61.8566 37.1779V37.1628C61.8007 36.5422 61.5259 35.9141 60.8857 35.2542C59.951 34.2864 58.6207 33.7956 57.2905 33.5601C55.9602 33.3245 54.6043 33.3185 53.2665 33.1599C51.0483 32.8942 48.8876 32.2102 46.6695 32.0003C43.9374 31.7473 41.1867 32.2159 38.6924 33.3593C37.0421 34.1142 35.3706 35.4339 35.2709 37.2443C35.1894 38.7407 36.2312 40.1752 35.9685 41.6534C35.7073 43.106 34.2275 44.249 34.3574 45.7182C34.4072 46.292 34.7016 46.8053 35.0701 47.2629C35.1969 47.4138 35.3313 47.5648 35.4702 47.7158C36.0077 48.2851 36.5996 48.8317 36.9001 49.5489C36.9122 49.5791 36.9243 49.6093 36.9349 49.6395C37.19 50.3477 37.0753 51.2431 36.4441 51.6492C36.4476 51.652 36.4502 51.6556 36.4517 51.6598V51.6598C36.4607 51.6719 36.4698 51.681 36.4773 51.693C36.4783 51.6906 36.4783 51.6879 36.4773 51.6855C36.7011 51.9508 37.0028 52.1389 37.3395 52.223L37.4679 52.2623C37.3637 52.3755 37.2655 52.4933 37.1659 52.6171L37.1009 52.7032C36.9345 52.9269 36.7832 53.1615 36.648 53.4053C36.571 53.5412 36.497 53.6771 36.4351 53.813C36.2281 54.2272 36.0782 54.6676 35.9896 55.1221C35.8281 56.1217 36.0561 57.1636 35.8115 58.142C35.5095 59.35 34.5537 60.2771 34.0146 61.399C32.9939 63.5129 33.5722 65.9938 33.7776 68.3281C34.0569 71.499 33.6039 74.6835 33.1524 77.8333C32.9129 79.5083 32.6733 81.1848 32.4337 82.8629C31.8297 87.0746 31.2257 91.2864 30.6218 95.4981C30.4013 97.0413 30.1401 98.669 29.1118 99.8604H29.1224C29.1224 99.8604 29.1224 99.8694 29.1118 99.8725C29.4205 100.007 29.7488 100.092 30.0842 100.123V100.123C31.4266 100.257 32.8489 99.6082 34.0569 98.8985C35.0135 98.3458 35.9195 97.7096 36.7642 96.9975C36.6404 97.4505 36.5075 97.9443 36.3656 98.4758C36.3661 98.4808 36.3661 98.4858 36.3656 98.4909V98.4909C34.6609 104.984 31.9188 116.887 31.9188 116.887C31.9188 116.887 31.6697 117.404 31.3465 118.176H73.9271C73.4288 117.572 72.9652 116.994 72.6029 116.527L72.4564 116.317ZM40.9287 56.2818C40.9392 56.2636 40.9468 56.247 40.9574 56.2304C40.9574 56.2787 40.9574 56.3256 40.9574 56.3709C40.9574 56.4162 40.9574 56.4569 40.9574 56.4992C40.9574 56.5415 40.9574 56.537 40.9574 56.5581C40.9574 56.5792 40.9574 56.5581 40.9574 56.5581C40.9574 56.62 40.9438 56.6819 40.9332 56.7438C40.9332 56.7438 40.9332 56.7514 40.9332 56.7574L41.0842 56.8133L41.2593 56.8857C42.2942 57.2944 43.3421 57.6644 44.4031 57.9956C44.5118 58.0303 44.622 58.0635 44.7322 58.0952L44.7549 58.2825C44.7821 58.4742 44.8077 58.669 44.8319 58.8638C44.8319 58.8638 44.8319 58.8728 44.8319 58.8789C44.8998 59.4179 44.9663 59.9555 45.0252 60.4809C45.0252 60.4809 42.2529 59.424 42.2876 61.029C42.286 61.0577 42.286 61.0864 42.2876 61.1151C42.2846 61.1533 42.2846 61.1917 42.2876 61.2299C42.3133 62.4801 42.7044 63.2215 42.7829 63.602C42.7782 63.6178 42.7699 63.6322 42.7587 63.6443C42.6917 63.79 42.6687 63.9522 42.6923 64.1109C42.6897 64.381 42.7109 64.6508 42.7557 64.9172C42.6742 64.967 42.5941 65.0168 42.5141 65.0682C42.4537 65.1059 42.3963 65.1482 42.3374 65.1905C41.967 63.9056 41.4824 62.6564 40.8894 61.4579C40.4742 60.6032 40.0076 59.7124 40.0121 58.7747C40.0121 58.7143 40.0121 58.6524 40.0197 58.5905C40.0365 58.3187 40.0883 58.0503 40.1737 57.7917C40.2084 57.6936 40.2462 57.5969 40.2885 57.5018C40.3871 57.2758 40.4975 57.055 40.6191 56.8405C40.6976 56.6985 40.7807 56.5581 40.8607 56.4162C40.8864 56.3739 40.9106 56.3301 40.9347 56.2878L40.9287 56.2818ZM108.725 23.2637C108.704 23.2275 108.689 23.1913 108.672 23.158C108.672 23.1429 108.657 23.1309 108.651 23.1158C108.618 23.1313 108.585 23.1449 108.55 23.1565C108.484 23.1822 108.416 23.2064 108.346 23.226C108.277 23.2456 108.248 23.2562 108.195 23.2683L108.061 23.303L108.073 23.3302C108.129 23.3181 108.183 23.3075 108.239 23.2924L108.254 23.4797C108.318 23.4797 108.377 23.4706 108.434 23.4706H108.515C108.633 23.4706 108.736 23.4706 108.817 23.4706C108.786 23.4027 108.753 23.3317 108.725 23.2637Z" fill="url(#paint1_linear_6_34)"/>
<path d="M75.7328 45.4419L74.8268 45.842C74.8268 45.842 68.9214 68.7842 68.9214 70.6384C68.9214 72.4926 81.4434 82.8101 81.4434 82.8101L83.3973 69.6222C83.3973 69.6222 80.5918 39.3794 75.7328 45.4419Z" fill="#E8F5FF"/>
<path d="M103.201 38.1443L97.9687 35.4143C97.6756 34.1651 97.1556 32.9802 96.4346 31.9188C95.669 30.8135 94.6513 29.7279 93.383 29.1616C90.1774 27.7242 106.942 20.179 106.942 20.179C107.206 21.0853 107.517 21.9774 107.874 22.8516C108.738 24.9836 110.171 27.7408 112.017 28.5259C115.156 29.8622 103.201 38.1443 103.201 38.1443Z" fill="#FFC1C7"/>
<path opacity="0.1" d="M107.874 22.8516C107.158 25.3709 105.668 27.6016 103.615 29.2285C101.563 30.8555 99.0509 31.7965 96.4346 31.9188C95.669 30.8135 94.6513 29.7279 93.383 29.1616C90.1774 27.7242 106.942 20.179 106.942 20.179C107.206 21.0853 107.517 21.9774 107.874 22.8516V22.8516Z" fill="black"/>
<path d="M108.345 19.042C108.345 21.5128 107.613 23.9283 106.241 25.983C104.869 28.0377 102.918 29.6393 100.635 30.5852C98.3527 31.5311 95.8408 31.7788 93.4174 31.297C90.994 30.8152 88.7679 29.6256 87.0206 27.8785C85.2734 26.1315 84.0835 23.9055 83.6014 21.4822C83.1193 19.0588 83.3667 16.5469 84.3124 14.2642C85.258 11.9815 86.8593 10.0305 88.9138 8.6579C90.9684 7.28533 93.3838 6.55287 95.8546 6.55317C97.4969 6.54558 99.1243 6.86341 100.643 7.48832C102.162 8.11323 103.542 9.03284 104.703 10.194C105.864 11.3552 106.784 12.735 107.409 14.2536C108.034 15.7723 108.352 17.3997 108.345 19.042V19.042Z" fill="#FFC1C7"/>
<path d="M110.148 36.5407L106.741 44.4891L103.736 49.7649H94.118L91.3125 42.5518L92.4495 35.0716H99.7954L104.538 34.8043L106.14 34.2698L107.173 34.8556L110.148 36.5407Z" fill="#575A89"/>
<path opacity="0.1" d="M108.974 25.9454C108.974 25.9454 111.099 26.3984 109.196 27.9582C107.294 29.518 100.73 34.4781 100.73 34.4781C100.73 34.4781 103.036 36.5317 102.559 38.937L110.197 34.679L111.556 27.8661C111.556 27.8661 111.709 25.8186 108.974 25.9454Z" fill="black"/>
<path opacity="0.1" d="M102.233 34.4781L97.3735 35.2799C97.3735 35.2799 98.3761 38.9869 97.8748 40.0393C97.8597 40.072 97.847 40.1058 97.8371 40.1405L95.8545 45.4993L97.3403 49.7075L102.483 42.6938L100.73 40.0393C100.73 40.0393 102.583 37.5841 103.685 36.7325C104.787 35.8809 102.233 34.4781 102.233 34.4781Z" fill="black"/>
<path d="M102.233 34.2713L97.3735 35.0716C97.3735 35.0716 98.3761 38.7785 97.8748 39.8309C97.8597 39.8636 97.847 39.8975 97.8371 39.9321L95.8545 45.2909L97.3403 49.4991L102.483 42.4809L100.73 39.8264C100.73 39.8264 102.583 37.3712 103.685 36.5196C104.787 35.668 102.233 34.2713 102.233 34.2713Z" fill="#DCE6F2"/>
<path d="M109.178 25.5453C109.178 25.5453 111.303 25.9983 109.399 27.558C107.495 29.1178 100.73 34.4781 100.73 34.4781C100.73 34.4781 103.235 36.1315 102.759 38.5353L110.398 34.2788L111.757 27.4659C111.757 27.4659 111.908 25.4184 109.178 25.5453Z" fill="#575A89"/>
<path opacity="0.1" d="M96.7681 32.3914C96.7681 32.3914 97.2316 33.2581 99.2776 34.8209C99.2776 34.8209 95.8711 36.6329 97.1742 39.1801L91.9634 37.8212L91.1616 35.3162L96.7681 32.3914Z" fill="black"/>
<path d="M96.5673 32.1921C96.5673 32.1921 97.0309 33.0588 99.0769 34.6216C99.0769 34.6216 95.6704 36.4245 96.9735 38.9793L91.7642 37.6203L90.9624 35.1168L96.5673 32.1921Z" fill="#575A89"/>
<path opacity="0.1" d="M110.148 36.5408L106.741 44.4891L103.742 49.7649H94.118L91.3125 42.5519L92.448 35.0716H94.4909C94.4577 36.8171 95.0949 38.8676 95.0542 39.6301C94.9847 40.8834 96.9235 47.6449 96.9235 47.6449C96.9235 47.6449 100.981 41.0827 102.583 40.4983C103.59 40.1314 105.723 37.0783 107.171 34.8557L110.148 36.5408Z" fill="black"/>
<path d="M123.566 78.3678L123.221 78.8026C123.221 78.8026 125.726 91.376 125.033 94.2313C124.915 94.7459 124.848 95.2709 124.832 95.7986V95.8213C124.71 98.7264 125.587 102.497 125.587 102.497C125.587 102.497 126.287 113.61 125.889 118.181H78.9867C78.7119 111.422 78.416 102.666 78.6848 101.695C79.1377 100.093 80.0437 94.2811 80.0437 94.2811L80.1434 91.527C80.1434 91.527 80.1434 88.8649 80.2249 85.8994C80.2596 84.5661 80.311 83.1664 80.385 81.9252C80.4801 80.3639 80.613 79.0488 80.7957 78.4025C80.9082 77.9127 80.9729 77.413 80.9889 76.9107C80.9889 76.8639 80.9889 76.8156 80.998 76.7672C80.998 76.6162 81.0131 76.4532 81.0191 76.2856C81.0191 76.2388 81.0191 76.1919 81.0191 76.1346C81.0478 75.1622 81.0373 74.0086 81.0055 72.8127C81.0055 72.7478 81.0055 72.6813 81.0055 72.6149C80.9799 71.718 80.9421 70.8029 80.8998 69.9332C80.7685 67.2153 80.5979 64.9172 80.5979 64.9172L74.8374 45.8314L76.3896 42.0082L80.6975 39.3689L88.6625 34.5597C92.5476 31.3661 95.1055 31.7497 96.0809 32.1C96.1756 32.1323 96.2684 32.1701 96.3587 32.2132C96.3889 32.2283 96.4131 32.2404 96.4357 32.254C96.4667 32.2687 96.4965 32.2858 96.5248 32.3053V32.3053C96.2577 32.4338 96.0256 32.625 95.8483 32.8625C95.6486 33.1328 95.5063 33.4411 95.4301 33.7685C95.3791 33.9714 95.3432 34.1778 95.3229 34.386C95.3033 34.605 95.2957 34.8315 95.2957 35.0595C95.3065 35.5595 95.3493 36.0583 95.424 36.5528C95.424 36.5619 95.424 36.5739 95.424 36.586C95.4739 36.9393 95.5358 37.2851 95.5962 37.6098C95.5955 37.6153 95.5955 37.6209 95.5962 37.6264C95.6656 38.0054 95.7351 38.3557 95.7819 38.6577C95.791 38.712 95.7985 38.7619 95.8061 38.8087C95.8394 39.0082 95.855 39.2103 95.8529 39.4126C95.8699 39.9012 95.9356 40.3867 96.0492 40.8622C96.0884 41.0615 96.1337 41.2744 96.1836 41.4964C96.2515 41.7984 96.3255 42.1275 96.4055 42.4627C96.4493 42.647 96.4961 42.8372 96.5444 43.0259C96.5626 43.1014 96.5822 43.1769 96.6003 43.2539L96.6305 43.3732C96.9521 44.6522 97.3009 45.925 97.5153 46.6951C97.6422 47.1481 97.7222 47.4274 97.7222 47.4274C97.7222 47.4274 99.9962 43.7507 101.811 41.6579C101.838 41.6277 101.862 41.599 101.888 41.5719C102.068 41.365 102.244 41.1763 102.414 41.0102C102.784 40.6417 103.116 40.379 103.383 40.2824C103.44 40.2615 103.495 40.2357 103.548 40.2054C104.29 39.7841 105.489 38.2545 106.611 36.6525C106.721 36.5015 106.829 36.3369 106.937 36.1814C107.187 35.822 107.428 35.4611 107.656 35.1153C107.831 34.8511 107.999 34.5944 108.157 34.3498C108.912 33.175 109.444 32.2993 109.444 32.2993L110.492 32.2525L110.675 32.2434H110.797L115.555 32.023C115.555 32.023 115.76 32.0577 116.098 32.1256C116.116 32.1256 116.135 32.1256 116.154 32.1377C117.842 32.4729 122.532 33.5344 122.819 35.0066C123.169 36.8095 130.734 39.2148 130.734 39.2148C130.834 40.4228 132.687 41.2185 132.687 41.2185C132.687 41.2185 135.492 48.6324 134.742 51.5375C134 54.4064 136.671 61.5032 136.742 61.7025L136.23 62.3487L123.566 78.3678Z" fill="#E8F5FF"/>
<path opacity="0.1" d="M108.973 25.4185C108.973 25.4185 113.604 24.1048 114.657 26.8091C115.709 29.5135 118.063 40.4349 118.063 40.4349C118.063 40.4349 111.951 41.587 110.349 40.4349C109.409 39.7512 108.246 39.447 107.092 39.5833L103.635 41.9373L102.615 41.6353C102.615 41.6353 108.144 33.4152 109.346 30.6218C110.548 27.8284 110.954 26.5796 108.973 25.4185Z" fill="black"/>
<path d="M108.772 24.8145C108.772 24.8145 113.406 23.5008 114.463 26.2051C115.52 28.9095 117.87 39.8309 117.87 39.8309C117.87 39.8309 111.759 40.983 110.155 39.8309C109.216 39.1471 108.054 38.843 106.9 38.9793L103.441 41.3333L102.42 41.0313C102.42 41.0313 107.949 32.8112 109.151 30.0178C110.353 27.2244 110.753 25.9786 108.772 24.8145Z" fill="#E8F5FF"/>
<path opacity="0.1" d="M77.6868 68.384C77.6868 68.384 81.1431 69.2356 81.7954 71.1895C82.4477 73.1434 79.2406 73.1932 79.2406 73.1932C79.2406 73.1932 77.2867 69.7369 77.6868 68.384Z" fill="black"/>
<path opacity="0.1" d="M90.5605 82.8101C90.5605 82.8101 82.0958 100.143 84.0496 101.796C86.0035 103.45 90.5605 82.8101 90.5605 82.8101Z" fill="black"/>
<path opacity="0.1" d="M102.232 70.0374C102.232 70.0374 108.995 86.8733 107.643 89.4735C106.29 92.0736 110.548 89.4735 110.548 89.4735L102.232 70.0374Z" fill="black"/>
<path d="M111.65 86.668C111.65 86.668 88.8078 87.7702 95.4712 94.8836C102.135 101.997 115.809 95.1856 115.809 95.1856L111.65 86.668Z" fill="#FFC1C7"/>
<path opacity="0.1" d="M108.345 19.042C108.347 20.6803 108.025 22.3029 107.398 23.8164C107.188 23.8406 106.978 23.8557 106.776 23.8647C106.474 23.2019 106.635 22.4363 106.641 21.707C106.647 20.9777 106.379 20.1201 105.677 19.9238C104.277 19.5297 103.31 22.1464 101.93 21.6738C100.873 21.3144 101.15 19.7109 100.541 18.7853C100.06 18.053 99.0947 17.8461 98.3443 17.3871C96.7483 16.4071 96.7966 14.8398 96.0552 13.357C95.2791 11.8033 93.6393 12.2623 92.2154 13.1788C91.1343 13.8764 90.2011 14.8111 89.0445 15.3668C88.0434 15.8499 86.9185 16.0251 85.8087 16.0508C85.1254 16.0772 84.4419 16.005 83.7793 15.8363C84.5587 12.9061 86.3773 10.3594 88.8959 8.67115C91.4145 6.98288 94.4612 6.2683 97.4678 6.66067C100.474 7.05303 103.236 8.52556 105.237 10.8037C107.238 13.0817 108.342 16.0099 108.343 19.042H108.345Z" fill="black"/>
<path d="M92.2201 12.7787C91.1375 13.4763 90.2058 14.4094 89.0492 14.9681C88.0481 15.4498 86.9232 15.6249 85.8134 15.6506C84.4544 15.6808 82.9913 15.4422 82.0627 14.4608C81.2095 13.5548 81.0057 12.1611 81.3666 10.9728C81.7275 9.78445 82.5927 8.79845 83.6089 8.08425C84.6251 7.37004 85.8043 6.87629 86.4778 5.85406C86.8341 5.3135 87.0062 4.6763 87.3022 4.10101C88.2489 2.26038 90.378 1.26381 92.436 1.14C94.4941 1.01618 96.534 1.62922 98.4939 2.2936C100.454 2.95798 102.429 3.68879 104.497 3.8262C105.419 3.88357 106.376 3.8262 107.23 4.17499C108.38 4.64157 109.133 5.75742 109.646 6.8929C110.222 8.17334 110.58 9.57155 110.519 10.9698C110.392 13.9549 108.42 16.8842 109.287 19.7441C109.517 20.5066 109.947 21.2887 109.717 22.0513C109.382 23.1641 107.946 23.4178 106.785 23.4706C106.483 22.8078 106.645 22.0407 106.651 21.3129C106.657 20.5851 106.388 19.7259 105.687 19.5297C104.286 19.1386 103.32 21.7508 101.943 21.2797C100.893 20.9188 101.165 19.3168 100.555 18.3912C100.073 17.6573 99.107 17.452 98.358 16.9929C96.762 16.013 96.8103 14.4457 96.069 12.9629C95.2868 11.4016 93.6455 11.8606 92.2201 12.7787Z" fill="#99607E"/>
<path d="M70.0708 70.2367L68.9187 70.6384C68.9187 70.6384 69.3717 77.4512 67.8618 79.4051C66.3518 81.359 72.8204 86.2165 72.8204 86.2165C72.8204 86.2165 81.6869 86.1667 81.9375 85.4615C82.1882 84.7564 81.4845 72.8384 81.4845 72.8384C81.4845 72.8384 76.7252 70.9841 77.1253 68.0292C77.1253 68.0292 75.6727 74.9915 73.5196 74.6911C71.3664 74.3906 68.9218 72.5922 70.0708 70.2367Z" fill="#E8F5FF"/>
<path opacity="0.1" d="M73.9135 76.799C75.5922 76.799 76.9531 75.5544 76.9531 74.0191C76.9531 72.4839 75.5922 71.2393 73.9135 71.2393C72.2349 71.2393 70.874 72.4839 70.874 74.0191C70.874 75.5544 72.2349 76.799 73.9135 76.799Z" fill="black"/>
<path d="M77.2367 70.4375C77.2367 70.4375 76.6327 52.0041 71.3751 56.1112C66.1174 60.2182 66.0661 65.1301 67.0672 66.5811C68.0683 68.0322 71.2784 75.2965 71.2784 75.2965C71.7806 75.5875 72.3445 75.7555 72.924 75.7865C73.5036 75.8175 74.0822 75.7108 74.6126 75.4751C75.1429 75.2394 75.6099 74.8814 75.9752 74.4304C76.3405 73.9795 76.5938 73.4483 76.7142 72.8806L77.2367 70.4375Z" fill="#FFC1C7"/>
<path opacity="0.1" d="M110.034 23.7455C110.01 23.6645 109.963 23.5922 109.899 23.5371C109.639 23.3 109.08 23.217 108.238 23.2895L108.272 23.6881C109.396 23.5914 109.618 23.8149 109.646 23.8527V23.8904L109.681 23.9402C109.821 24.1285 109.92 24.3439 109.972 24.5727C110.024 24.8015 110.028 25.0387 109.983 25.269C109.737 26.4996 108.225 27.4796 108.21 27.4901L108.174 27.5113L108.152 27.546C107.499 28.5139 103.81 31.2454 102.846 31.952L102.761 31.8554C102.329 32.2299 98.5331 35.5533 98.3278 36.8261C98.1949 37.6249 97.295 37.9344 96.9688 38.0205C96.6245 37.7593 95.5072 36.8699 94.9258 35.8734C94.3808 34.9357 96.5747 33.1056 96.768 32.3914L96.466 32.0819C96.4343 32.1966 93.6167 34.83 94.4004 36.1754C95.0285 37.255 96.1761 38.1791 96.5777 38.4841C96.4494 39.6497 95.6506 46.4943 94.423 48.116C92.898 50.1318 91.616 60.2907 91.758 63.8376C91.8833 66.9889 91.0604 72.9411 88.3123 75.4974C87.8365 75.9594 87.2625 76.308 86.6332 76.5171C86.0039 76.7263 85.3355 76.7906 84.6778 76.7054H84.6446H84.6114C84.5721 76.7054 80.5859 77.1131 77.2368 74.2895C74.4962 71.9838 72.944 68.221 72.6209 63.1023H72.5544L72.5272 61.612C73.2703 61.496 73.9395 61.0965 74.3942 60.4975C74.8489 59.8985 75.0538 59.1465 74.9657 58.3996C74.8776 57.6527 74.5034 56.9691 73.9218 56.4923C73.3403 56.0155 72.5965 55.7826 71.8468 55.8427C71.0972 55.9028 70.4 56.2511 69.9017 56.8144C69.4035 57.3778 69.143 58.1123 69.175 58.8637C69.207 59.6151 69.529 60.3248 70.0733 60.8438C70.6176 61.3627 71.3418 61.6505 72.0939 61.6467H72.1271L72.1543 63.1279L72.0214 63.137C72.3536 68.4218 73.9843 72.3311 76.8532 74.7455C79.0338 76.5524 81.8192 77.4639 84.6461 77.2958C84.8467 77.3177 85.0483 77.3288 85.2501 77.329C86.5459 77.3357 87.7926 76.8343 88.723 75.9323C91.6176 73.237 92.4978 67.0659 92.3604 63.8074C92.2094 60.0492 93.5548 50.2556 94.9047 48.4724C96.2274 46.7223 97.0292 39.9034 97.1696 38.5822C97.6483 38.4478 98.7309 38.0235 98.9151 36.9213C99.048 36.124 101.583 33.6673 103.143 32.3069L103.096 32.2525C103.936 31.6395 106.546 29.7067 107.84 28.4656C108.242 28.0805 108.641 27.6955 109.057 27.3286C109.559 26.8846 110.196 26.1795 110.364 25.346C110.421 25.0709 110.421 24.787 110.364 24.5117C110.308 24.2365 110.195 23.9757 110.034 23.7455V23.7455Z" fill="black"/>
<path d="M96.5263 38.3889C96.4629 38.3451 94.959 37.2685 94.2055 35.973C93.4233 34.6276 96.2409 31.9958 96.2711 31.881L96.5731 32.1906C96.3813 32.9033 94.1874 34.7348 94.7325 35.671C95.4195 36.8533 96.866 37.8876 96.8811 37.8982L96.5263 38.3889Z" fill="#353146"/>
<path d="M102.649 32.2449L102.414 31.9203C102.462 31.8855 107.205 28.4549 107.952 27.3451L107.976 27.3119L108.011 27.2893C108.026 27.2787 109.538 26.3002 109.784 25.0681C109.829 24.8381 109.826 24.6011 109.774 24.3724C109.722 24.1438 109.622 23.9286 109.482 23.7409L109.447 23.6895V23.6533C109.417 23.614 109.195 23.3921 108.071 23.4887L108.037 23.0886C108.881 23.0161 109.438 23.0992 109.698 23.3362C109.762 23.3918 109.81 23.4646 109.835 23.5461C109.998 23.7757 110.113 24.0363 110.171 24.3118C110.23 24.5873 110.232 24.872 110.176 25.1482C110.009 25.9832 109.373 26.6883 108.87 27.1307C108.455 27.4976 108.055 27.8857 107.655 28.2677C106.137 29.7218 102.815 32.1256 102.649 32.2449Z" fill="#E8F5FF"/>
<path d="M72.3327 61.0862L71.9326 61.0935L71.9772 63.5256L72.3772 63.5183L72.3327 61.0862Z" fill="#E8F5FF"/>
<path d="M71.8993 61.4549C73.5129 61.4549 74.821 60.1468 74.821 58.5331C74.821 56.9195 73.5129 55.6114 71.8993 55.6114C70.2857 55.6114 68.9775 56.9195 68.9775 58.5331C68.9775 60.1468 70.2857 61.4549 71.8993 61.4549Z" fill="#B8405E"/>
<path d="M71.8992 60.9596C73.2393 60.9596 74.3256 59.8732 74.3256 58.5331C74.3256 57.193 73.2393 56.1066 71.8992 56.1066C70.559 56.1066 69.4727 57.193 69.4727 58.5331C69.4727 59.8732 70.559 60.9596 71.8992 60.9596Z" fill="#E8F5FF"/>
<path d="M85.0597 77.1342C84.858 77.1345 84.6563 77.1239 84.4557 77.1025C81.629 77.269 78.8443 76.3576 76.6629 74.5522C73.794 72.1363 72.1663 68.2315 71.8311 62.9422L72.435 62.9045C72.7582 68.0232 74.3104 71.7875 77.0525 74.0917C80.4015 76.9077 84.3863 76.5076 84.4255 76.5076H84.4587H84.492C85.1498 76.5924 85.8184 76.5278 86.4478 76.3187C87.0773 76.1096 87.6516 75.7612 88.1279 75.2996C90.8745 72.7433 91.6974 66.7911 91.5721 63.6398C91.4211 60.0899 92.703 49.931 94.2296 47.9167C95.5659 46.1516 96.3949 38.1957 96.4039 38.1156L96.4266 37.8891L96.6501 37.8499C96.6636 37.8499 97.9682 37.6022 98.1313 36.6268C98.3427 35.3554 102.133 32.032 102.563 31.6561L102.957 32.1091C101.391 33.468 98.8561 35.9262 98.7292 36.725C98.545 37.8302 97.4624 38.253 96.9853 38.3859C96.8343 39.7086 96.0385 46.526 94.7203 48.2761C93.3704 50.0593 92.0251 59.8528 92.1761 63.6111C92.3059 66.8696 91.4347 73.0422 88.5401 75.736C87.6081 76.6402 86.3583 77.1423 85.0597 77.1342Z" fill="#353146"/>
<g opacity="0.1">
<path opacity="0.1" d="M109.631 15.4724C109.879 14.5574 110.178 13.6363 110.386 12.7092C110.137 13.6409 109.837 14.5574 109.631 15.4724Z" fill="black"/>
<path opacity="0.1" d="M107.105 22.6628C106.803 21.9999 106.965 21.2329 106.971 20.5051C106.977 19.7773 106.708 18.9257 106.007 18.7218C104.606 18.3308 103.64 20.9445 102.263 20.4719C101.206 20.111 101.485 18.5089 100.875 17.5833C100.393 16.8495 99.4286 16.6442 98.6796 16.1851C97.0821 15.2052 97.1304 13.6378 96.3906 12.1551C95.6129 10.5998 93.9747 11.0589 92.5493 11.9769C91.4666 12.6745 90.535 13.6092 89.3784 14.1663C88.3773 14.648 87.2524 14.8232 86.1426 14.8488C84.7912 14.8805 83.3205 14.6405 82.3919 13.659C81.6761 12.904 81.4179 11.7972 81.5659 10.7599C81.5403 10.8309 81.5176 10.9018 81.4949 10.9728C81.1326 12.1611 81.344 13.5578 82.191 14.4608C83.1197 15.4422 84.5903 15.6808 85.9417 15.6506C87.0531 15.6249 88.1765 15.4498 89.1791 14.9681C90.3387 14.4094 91.2703 13.4763 92.35 12.7787C93.7753 11.8606 95.4151 11.4016 96.1913 12.9569C96.9311 14.4396 96.8843 16.007 98.4803 16.9869C99.2353 17.4399 100.194 17.6513 100.677 18.3851C101.281 19.3137 101.014 20.9128 102.065 21.2737C103.441 21.7448 104.407 19.1325 105.808 19.5236C106.509 19.7199 106.779 20.5806 106.771 21.3069C106.764 22.0332 106.607 22.8017 106.906 23.4646C108.067 23.4117 109.503 23.1626 109.84 22.0452C109.886 21.8849 109.907 21.7183 109.903 21.5515C109.412 22.3986 108.15 22.616 107.105 22.6628Z" fill="black"/>
</g>
<path opacity="0.1" d="M134.395 59.8679L136.148 61.7222C136.148 61.7222 137.55 71.94 138.251 72.8958C138.952 73.8516 140.606 77.6536 139.053 80.5089C139.053 80.5089 138.551 82.0626 138.852 82.7134C139.152 83.3642 136.599 86.6212 136.599 86.6212C136.599 86.6212 133.242 89.626 132.54 90.0774C131.838 90.5289 128.133 94.1347 126.881 94.1845C125.629 94.2343 125.22 95.7881 125.22 95.7881L118.157 96.0387C118.157 96.0387 114.255 95.8349 113.406 96.386C113.406 96.386 113.859 90.4247 109.5 86.517L115.06 84.5133C115.06 84.5133 117.165 83.6073 117.815 82.6606C118.225 82.0802 118.805 81.6425 119.476 81.4088C119.476 81.4088 121.028 80.3066 121.078 79.7056C121.128 79.1047 122.976 78.3678 122.976 78.3678L121.93 69.4365L122.481 54.6088C122.481 54.6088 124.234 42.185 127.941 42.8871C131.648 43.5892 134.395 59.8679 134.395 59.8679Z" fill="black"/>
<path d="M134.999 59.8679L136.752 61.7222C136.752 61.7222 138.154 71.94 138.855 72.8958C139.556 73.8516 141.21 77.6536 139.657 80.5089C139.657 80.5089 139.157 82.0626 139.457 82.7134C139.758 83.3642 137.203 86.6212 137.203 86.6212C137.203 86.6212 133.846 89.626 133.144 90.0774C132.442 90.5289 128.737 94.1347 127.485 94.1845C126.233 94.2343 125.824 95.7881 125.824 95.7881L118.761 96.0387C118.761 96.0387 114.856 95.8349 114.01 96.386C114.01 96.386 114.463 90.4247 110.104 86.517L115.664 84.5133C115.664 84.5133 117.769 83.6073 118.419 82.6606C118.829 82.0802 119.409 81.6425 120.08 81.4088C120.08 81.4088 121.632 80.3066 121.682 79.7056C121.732 79.1047 123.58 78.3678 123.58 78.3678L122.534 69.4365L123.085 54.6088C123.085 54.6088 124.838 42.185 128.545 42.8871C132.252 43.5892 134.999 59.8679 134.999 59.8679Z" fill="#E8F5FF"/>
<path opacity="0.1" d="M128.481 74.8466C128.481 74.8466 133.641 73.4877 134.994 75.1486C136.347 76.8095 128.481 74.8466 128.481 74.8466Z" fill="black"/>
<path opacity="0.1" d="M127.28 77.1251C129.033 78.3527 134.443 78.4025 134.443 78.4025L127.28 77.1251Z" fill="black"/>
<path opacity="0.1" d="M129.934 83.2616C130.085 83.3114 133.653 87.1194 135.151 85.9674C136.649 84.8153 129.934 83.2616 129.934 83.2616Z" fill="black"/>
<path opacity="0.1" d="M81.8813 51.302C81.8813 51.302 82.9293 58.5165 82.4129 61.4549C81.8965 64.3932 83.7809 68.0337 83.7809 68.0337L81.8813 51.302Z" fill="black"/>
<path d="M58.6828 54.2358C57.4749 55.1825 56.5931 57.4233 55.9544 59.886C54.84 64.1818 54.4761 69.1631 54.4761 69.1631C54.4761 69.1631 44.8577 66.9586 45.5584 65.9575C45.9993 65.3279 45.4074 60.5836 44.9136 57.1439C44.6192 55.1116 44.3564 53.5337 44.3564 53.5337C44.3564 53.5337 61.9896 51.6296 58.6828 54.2358Z" fill="#FFCCD0"/>
<path opacity="0.1" d="M58.6828 54.035C57.4749 54.9833 56.5931 57.2225 55.9544 59.6852C54.038 60.2671 51.9999 60.3196 50.0562 59.8371C48.1124 59.3546 46.3354 58.3552 44.9136 56.9447C44.6192 54.9108 44.3564 53.3329 44.3564 53.3329C44.3564 53.3329 61.9896 51.4303 58.6828 54.035Z" fill="black"/>
<path d="M63.8527 48.6384C63.8536 51.2647 62.9255 53.8067 61.2325 55.8144C59.5395 57.8222 57.1908 59.1663 54.6021 59.6089C52.0134 60.0514 49.3515 59.5639 47.0877 58.2326C44.8239 56.9013 43.104 54.812 42.2325 52.3345C41.361 49.8571 41.394 47.1512 42.3257 44.6957C43.2574 42.2403 45.0278 40.1936 47.3234 38.9179C49.6191 37.6423 52.292 37.2199 54.8692 37.7255C57.4463 38.2311 59.7615 39.6321 61.405 41.6806C62.9888 43.6538 63.8522 46.1082 63.8527 48.6384V48.6384Z" fill="#FFCCD0"/>
<path opacity="0.1" d="M72.6223 118.181H69.4514L69.1841 112.58L68.9048 106.784C68.9048 106.784 69.625 106.676 70.7726 106.516L71.2361 106.454H71.2739C71.5245 107.631 71.7722 108.839 72.0107 110.045C72.4079 112.187 72.6145 114.36 72.6283 116.538C72.6283 116.689 72.6283 116.84 72.6283 116.982C72.6374 117.385 72.6283 117.788 72.6223 118.181Z" fill="black"/>
<path d="M72.0141 118.181H32.248C32.4202 117.79 32.5349 117.552 32.5349 117.552C32.5349 117.552 35.7164 103.634 37.3336 97.745C37.334 97.74 37.334 97.7349 37.3336 97.7299C37.5356 96.9299 37.7795 96.1412 38.0644 95.3668V95.3668C38.0828 95.3142 38.1066 95.2636 38.1353 95.2158C38.9356 93.9142 39.9382 92.5115 38.5355 90.5078C37.1327 88.5041 37.6295 79.6875 37.6295 79.6875C37.6295 79.6875 39.3327 72.1725 41.1356 68.1651C41.4092 67.5444 41.7975 66.9809 42.2801 66.5042C42.4371 66.3507 42.6046 66.2084 42.7814 66.0784V66.0784C42.9159 65.9773 43.0561 65.884 43.2012 65.799L43.2299 65.7809C43.9873 65.3515 44.8283 65.0904 45.6957 65.0154C46.3118 64.951 46.9337 64.9682 47.5453 65.0667C50.4686 65.4955 52.809 66.2127 54.6693 67.0296C59.711 69.2447 61.2376 72.2133 61.2678 72.2752L61.2798 72.3009C61.4822 72.7735 64.4417 79.683 65.5077 82.9067C65.784 83.7463 65.935 84.3366 65.8746 84.4982C65.5726 85.2985 68.1788 95.317 68.1788 95.317C68.1788 95.317 69.3867 100.149 70.5947 105.813C70.6475 106.048 70.6974 106.284 70.7457 106.522C70.9616 107.551 71.176 108.598 71.3829 109.645C71.7837 111.801 71.9904 113.99 72.0005 116.183C72.0226 116.866 72.0271 117.532 72.0141 118.181Z" fill="#FF748E"/>
<path opacity="0.1" d="M45.4587 61.5696C45.4587 61.5696 42.7151 60.5127 42.7483 62.1162C42.7816 63.7198 43.4173 64.4868 43.2164 64.7209C43.0156 64.9549 43.3161 66.3577 43.3161 66.3577C43.3161 66.3577 47.023 66.3577 48.7262 67.1247C50.4295 67.8918 56.7078 69.4289 57.5096 69.897C58.3114 70.3651 61.2845 72.4639 61.2845 72.4639L61.5517 68.4897C61.5517 68.4897 58.479 65.9515 53.4373 64.6499C48.3955 63.3483 45.4587 61.5696 45.4587 61.5696Z" fill="black"/>
<path d="M45.4587 61.3688C45.4587 61.3688 42.7151 60.3118 42.7483 61.9154C42.7816 63.519 43.4173 64.286 43.2164 64.5201C43.0156 64.7541 43.3161 66.1569 43.3161 66.1569C43.3161 66.1569 47.023 66.1569 48.7262 66.9254C50.4295 67.694 56.7079 69.2296 57.5096 69.6962C58.3114 70.1627 61.2845 72.2631 61.2845 72.2631L61.5548 68.301C61.5548 68.301 58.482 65.7628 53.4403 64.4612C48.3986 63.1596 45.4587 61.3688 45.4587 61.3688Z" fill="#FF748E"/>
<path opacity="0.1" d="M53.7407 70.9328C53.7407 70.9328 58.9833 76.6087 58.716 78.1805C58.4487 79.7524 53.7407 70.9328 53.7407 70.9328Z" fill="black"/>
<path opacity="0.1" d="M45.2243 91.4364C45.2243 91.4364 41.3815 94.9772 40.249 95.1781C39.1166 95.3789 41.1173 96.0463 42.4188 95.5133C43.7204 94.9803 46.4957 93.5775 46.4957 93.5775L45.2243 91.4364Z" fill="black"/>
<path d="M73.5754 118.181H64.6138C63.3606 117.093 62.1753 116.086 61.4203 115.481C60.2123 114.511 59.3411 113.085 58.7854 111.937C58.6601 111.676 58.5514 111.431 58.4593 111.209C58.2943 110.827 58.1492 110.436 58.0244 110.039L64.6606 106.098C65.0274 106.41 65.372 106.747 65.6919 107.107L65.772 107.199C66.1404 107.634 66.465 108.127 66.4937 108.532C66.5269 109.003 67.8376 110.826 69.1769 112.576C70.5359 114.356 71.928 116.058 72.0201 116.172C72.0201 116.172 72.2496 116.485 72.6241 116.965C72.8884 117.312 73.2145 117.729 73.5754 118.181Z" fill="#FFCCD0"/>
<path opacity="0.1" d="M61.4049 41.6806C61.0863 42.3993 60.8009 43.1453 60.7586 43.9455C60.6394 46.2558 60.8326 51.4213 58.2748 52.5809C57.0079 53.1517 55.652 51.8984 54.2628 51.8682C53.2633 51.8471 52.3467 52.4813 51.7367 53.274C51.1267 54.0667 50.7477 55.0074 50.3053 55.9043C49.9025 56.7184 49.4386 57.5008 48.9176 58.2447C48.7619 58.4724 48.5903 58.6889 48.4042 58.8925C46.8445 58.2344 45.4557 57.2289 44.3434 55.9527C43.2312 54.6765 42.425 53.1633 41.9861 51.5283C41.5473 49.8933 41.4875 48.1797 41.8112 46.5181C42.135 44.8565 42.8338 43.2907 43.8543 41.9401C44.8748 40.5894 46.1902 39.4896 47.7002 38.7243C49.2102 37.959 50.875 37.5485 52.5677 37.524C54.2603 37.4996 55.9363 37.8619 57.4677 38.5832C58.9992 39.3046 60.3458 40.366 61.4049 41.6866V41.6806Z" fill="black"/>
<path d="M60.5578 43.5378C60.437 45.848 60.6317 51.0136 58.0724 52.1717C56.8055 52.7424 55.4496 51.4907 54.0605 51.4605C53.0609 51.4379 52.1458 52.0735 51.5343 52.8648C50.9228 53.656 50.5468 54.5982 50.1029 55.4966C49.7 56.3106 49.2362 57.093 48.7152 57.837C48.4042 58.2779 48.0599 58.7203 47.5813 58.968C46.7478 59.4028 45.7376 59.1582 44.8437 58.8789C43.6841 58.5135 42.5416 58.1018 41.4162 57.6437C41.442 57.4738 41.4551 57.3022 41.4554 57.1304C41.4222 57.1938 41.386 57.2527 41.3497 57.3161L41.2788 57.4399C41.1504 57.6664 41.0251 57.8929 40.9103 58.1254C40.8665 58.2145 40.8243 58.3066 40.7865 58.3987C40.6347 58.7415 40.5393 59.1066 40.5042 59.4798C40.4271 60.487 40.9239 61.4428 41.3648 62.3487C43.0605 65.8533 44.1084 69.9513 42.8325 73.628C42.2798 75.2271 41.3225 76.6479 40.6234 78.1926C39.4013 80.9285 39.0416 83.9717 39.5921 86.9171C39.9409 88.7471 40.64 90.5591 40.4679 92.4148C40.1659 95.6084 37.4118 97.985 34.6531 99.6188C33.1628 100.498 31.3388 101.28 29.7563 100.585C30.765 99.4074 31.0247 97.7781 31.2421 96.241C31.8371 92.0484 32.4335 87.8538 33.0314 83.6571C33.27 81.9871 33.5081 80.3171 33.7456 78.6471C34.1896 75.5094 34.6395 72.337 34.3617 69.1797C34.1594 66.8529 33.5886 64.3826 34.5972 62.2763C35.1303 61.1604 36.08 60.2363 36.376 59.0344C36.6191 58.0575 36.3926 57.0186 36.5526 56.0236C36.6402 55.5708 36.7885 55.132 36.9935 54.719C37.2546 54.1585 37.5953 53.6387 38.0052 53.1758C37.6005 53.058 37.223 52.8965 36.9935 52.5582C37.6428 52.1354 37.7409 51.1827 37.4465 50.467C37.1521 49.7512 36.5632 49.2061 36.0332 48.6414C35.5032 48.0767 34.9928 47.4184 34.9264 46.6483C34.7981 45.1821 36.2627 44.0467 36.5209 42.6001C36.7821 41.1279 35.7493 39.6965 35.8324 38.2062C35.929 36.4048 37.5839 35.0957 39.2177 34.3362C41.6831 33.1949 44.4065 32.726 47.1117 32.9772C49.3132 33.1856 51.4437 33.8666 53.6392 34.1308C54.9634 34.2818 56.3057 34.2969 57.6209 34.5295C58.9361 34.762 60.2543 35.2527 61.1799 36.2176C63.6199 38.7618 60.6967 40.8561 60.5578 43.5378Z" fill="#FFE0D0"/>
<path opacity="0.1" d="M58.5165 111.938C57.7465 111.605 56.3452 111.804 53.9399 111.072C51.5345 110.339 51.071 107.03 51.071 107.03V107.019C51.0423 106.944 50.8188 106.451 49.3059 104.727C47.6343 102.823 44.021 93.2061 44.021 93.2061C44.021 93.2061 40.8169 89.7649 40.9181 88.4965C41.0193 87.2282 40.3488 83.8534 40.4153 80.0786C40.4817 76.3037 47.6283 73.8002 47.6283 73.8002C61.3885 71.3616 58.1481 87.2252 57.7812 88.4271C57.4143 89.629 59.3183 92.8754 59.3183 92.8754C59.0495 94.2887 60.4206 96.4766 60.4206 96.4766C60.4206 96.4766 60.7528 98.4124 60.8207 99.1477C60.8245 99.1817 60.8321 99.2151 60.8434 99.2474C61.0638 99.9404 62.8607 100.569 63.5915 100.951C64.36 101.352 66.8318 104.858 66.8318 104.858C67.3648 107.433 59.2836 112.277 58.5165 111.938Z" fill="black"/>
<path d="M58.9165 111.334C58.1479 110.999 56.7452 111.2 54.3413 110.466C51.9375 109.732 51.4724 106.426 51.4724 106.426V106.415C51.4452 106.338 51.2202 105.847 49.7073 104.123C48.0358 102.219 44.4224 92.6006 44.4224 92.6006C44.4224 92.6006 41.2183 89.1609 41.318 87.8925C41.4176 86.6242 40.7502 83.2495 40.8167 79.4776C40.8831 75.7058 48.0252 73.2038 48.0252 73.2038C61.7854 70.7652 58.545 86.6287 58.1781 87.8306C57.8112 89.0326 59.7152 92.2789 59.7152 92.2789C59.4465 93.6922 60.8175 95.8802 60.8175 95.8802C60.8175 95.8802 61.1497 97.8159 61.2191 98.5513C61.2217 98.5853 61.2288 98.6188 61.2403 98.6509C61.4607 99.344 63.2576 99.9721 63.9899 100.354C64.757 100.754 67.2303 104.262 67.2303 104.262C67.7663 106.832 59.685 111.676 58.9165 111.334Z" fill="#FF748E"/>
<path opacity="0.1" d="M48.2974 81.4858C48.2974 81.4858 54.3084 87.8276 55.8773 87.8276C57.4461 87.8276 48.2974 81.4858 48.2974 81.4858Z" fill="black"/>
<path d="M58.9167 111.334C58.1481 110.999 56.7454 111.2 54.3416 110.466C51.9377 109.732 51.4727 106.426 51.4727 106.426V106.415C53.0657 105.358 57.1002 102.373 58.6902 101.281C59.8091 100.516 60.7226 99.3908 61.2571 98.6449C61.4776 99.338 63.2744 99.9661 64.0067 100.348C64.7738 100.748 67.2471 104.256 67.2471 104.256C67.7665 106.832 59.6853 111.676 58.9167 111.334Z" fill="#FF748E"/>
<g opacity="0.1">
<path opacity="0.1" d="M37.0024 52.5749C37.01 52.587 37.0206 52.5975 37.0296 52.6096C37.0749 52.5522 37.1217 52.4948 37.1701 52.4405C37.1186 52.4905 37.0625 52.5355 37.0024 52.5749V52.5749Z" fill="black"/>
<path opacity="0.1" d="M40.5057 59.4964C40.5691 58.6584 41.0175 57.92 41.4373 57.1832C41.1625 57.0775 40.8877 56.9703 40.6159 56.8586C40.6418 56.6892 40.6549 56.518 40.6551 56.3467C40.2308 57.1017 39.7688 57.8446 39.7039 58.6947C39.6269 59.7033 40.1236 60.6576 40.5645 61.5636C42.2617 65.0666 43.3081 69.1646 42.0322 72.8429C41.4781 74.4404 40.5223 75.8628 39.8232 77.4074C38.6015 80.1429 38.2423 83.1857 38.7934 86.1304C39.1392 87.962 39.8398 89.7724 39.6676 91.6281C39.3656 94.8217 36.613 97.1983 33.8528 98.8306C32.7249 99.498 31.4067 100.109 30.1459 100.066C30.0292 100.254 29.899 100.433 29.7563 100.602C31.3403 101.301 33.1628 100.514 34.6531 99.6324C37.4148 98.0016 40.1735 95.631 40.4755 92.4314C40.6476 90.5757 39.947 88.7653 39.5997 86.9337C39.0484 83.9892 39.4066 80.9467 40.6265 78.2107C41.321 76.6676 42.2874 75.2437 42.8355 73.6462C44.1114 69.9679 43.0635 65.8699 41.3678 62.3668C40.9284 61.4548 40.4287 60.5051 40.5057 59.4964Z" fill="black"/>
<path opacity="0.1" d="M61.1767 36.2357C61.0282 36.0833 60.8687 35.942 60.6995 35.8129C62.5296 38.1866 59.8872 40.2039 59.7558 42.7587C59.638 45.0689 59.8313 50.2359 57.272 51.3926C56.0066 51.9648 54.6492 50.7116 53.2615 50.6814C52.2604 50.6602 51.3454 51.2959 50.7339 52.0871C50.1224 52.8783 49.7464 53.8206 49.304 54.7175C48.9004 55.5314 48.436 56.3137 47.9148 57.0579C47.6128 57.5003 47.2595 57.9412 46.7793 58.1903C45.9489 58.6237 44.9387 58.3806 44.0433 58.0997C43.1726 57.8259 42.3099 57.524 41.4553 57.1938C41.4535 57.3511 41.4404 57.508 41.416 57.6634C42.5424 58.1224 43.6855 58.5341 44.8451 58.8985C45.739 59.1794 46.7491 59.4225 47.5811 58.9891C48.0598 58.74 48.4071 58.2976 48.7166 57.8551C49.2382 57.1121 49.7021 56.3301 50.1042 55.5162C50.5482 54.6193 50.9226 53.6756 51.5357 52.8844C52.1487 52.0932 53.0622 51.459 54.0618 51.4801C55.451 51.5103 56.8084 52.7636 58.0737 52.1913C60.6331 51.0347 60.4383 45.8677 60.5576 43.5574C60.6965 40.8713 63.6198 38.7785 61.1767 36.2357Z" fill="black"/>
</g>
<path opacity="0.1" d="M41.2804 57.4414C41.152 57.6679 41.0267 57.8944 40.9119 58.1269C40.8681 58.216 40.8259 58.3081 40.7881 58.4002C39.9969 57.603 38.0702 55.708 36.9951 55.1206C37.2565 54.5603 37.5972 54.0406 38.0068 53.5775C38.0068 53.5775 40.5692 54.9319 41.2804 57.4414Z" fill="black"/>
<path d="M41.3513 57.3176C40.7579 54.6314 38.0068 53.1774 38.0068 53.1774C37.5969 53.6403 37.2561 54.16 36.9951 54.7205C38.1291 55.3411 40.2189 57.4218 40.9119 58.127L41.3513 57.3176Z" fill="#FF748E"/>
</g>
<defs>
<linearGradient id="paint0_linear_6_34" x1="110.231" y1="14.4064" x2="110.231" y2="11.6311" gradientUnits="userSpaceOnUse">
<stop stop-color="#808080" stop-opacity="0.25"/>
<stop offset="0.54" stop-color="#808080" stop-opacity="0.12"/>
<stop offset="1" stop-color="#808080" stop-opacity="0.1"/>
</linearGradient>
<linearGradient id="paint1_linear_6_34" x1="69272.2" y1="99430.7" x2="69272.2" y2="6932.52" gradientUnits="userSpaceOnUse">
<stop stop-color="#808080" stop-opacity="0.25"/>
<stop offset="0.54" stop-color="#808080" stop-opacity="0.12"/>
<stop offset="1" stop-color="#808080" stop-opacity="0.1"/>
</linearGradient>
<clipPath id="clip0_6_34">
<rect width="164" height="118.179" fill="white"/>
</clipPath>
</defs>
</svg>
