<?xml version="1.0" standalone="no"?>
<!DOCTYPE svg PUBLIC "-//W3C//DTD SVG 20010904//EN"
 "http://www.w3.org/TR/2001/REC-SVG-20010904/DTD/svg10.dtd">
<svg version="1.0" xmlns="http://www.w3.org/2000/svg"
 width="318.000000pt" height="87.000000pt" viewBox="0 0 318.000000 87.000000"
 preserveAspectRatio="xMidYMid meet">
<metadata>
Created by potrace 1.15, written by Peter Selinger 2001-2017
</metadata>
<g transform="translate(0.000000,87.000000) scale(0.100000,-0.100000)"
fill="#B8405E" stroke="none">
<path d="M584 696 c-38 -17 -44 -31 -44 -112 0 -57 -2 -64 -20 -64 -16 0 -20
-7 -20 -34 0 -25 5 -35 20 -39 18 -5 20 -14 20 -96 l0 -91 35 0 34 0 3 92 3
93 30 5 c25 4 30 10 30 35 0 27 -4 30 -32 33 -31 3 -33 6 -33 42 0 53 8 70 36
70 30 0 59 39 41 57 -20 20 -69 24 -103 9z"/>
<path d="M2408 671 c-80 -26 -134 -108 -126 -189 3 -26 7 -54 9 -62 3 -11 -6
-16 -34 -18 -24 -2 -37 -8 -34 -15 2 -8 42 -12 133 -12 l129 0 13 28 c17 35
28 28 37 -26 4 -23 12 -51 18 -61 9 -19 11 -19 31 6 11 14 29 39 38 57 15 27
22 31 58 31 29 0 40 4 40 15 0 11 -12 15 -49 15 -46 0 -51 -3 -71 -36 -12 -19
-25 -32 -28 -29 -4 3 -13 34 -22 67 -8 34 -20 63 -27 65 -6 2 -23 -21 -36 -51
l-26 -56 -61 0 c-60 0 -61 0 -76 35 -28 68 -10 134 52 181 50 39 115 39 173 1
48 -32 49 -32 75 -8 12 11 42 25 67 32 41 11 50 10 90 -9 24 -12 53 -34 63
-49 28 -39 33 -121 10 -165 -31 -60 -130 -157 -231 -227 l-33 -22 -67 50 c-66
50 -99 64 -91 39 6 -19 140 -118 160 -118 23 0 163 107 221 169 61 65 86 121
87 189 0 61 -17 99 -60 136 -60 50 -149 57 -217 15 -31 -19 -31 -19 -65 1 -40
23 -111 33 -150 21z"/>
<path d="M382 648 c-19 -19 -14 -56 9 -68 16 -9 26 -8 45 5 28 18 31 37 8 59
-18 19 -45 21 -62 4z"/>
<path d="M1356 644 c-23 -22 -20 -41 8 -59 19 -13 29 -14 45 -5 21 11 25 21
21 50 -4 32 -49 40 -74 14z"/>
<path d="M80 455 l0 -195 125 0 125 0 0 40 0 40 -80 0 -80 0 0 155 0 155 -45
0 -45 0 0 -195z"/>
<path d="M1060 455 l0 -195 126 0 125 0 -3 38 -3 37 -77 3 -78 3 0 154 0 155
-45 0 -45 0 0 -195z"/>
<path d="M377 513 c-4 -3 -7 -62 -7 -130 l0 -123 40 0 40 0 0 130 0 130 -33 0
c-19 0 -37 -3 -40 -7z"/>
<path d="M774 501 c-46 -28 -64 -59 -64 -110 0 -54 29 -104 70 -121 18 -7 55
-11 90 -8 52 4 66 9 92 35 l31 32 -36 6 c-25 5 -42 2 -59 -9 -12 -9 -33 -16
-45 -16 -23 0 -63 32 -63 50 0 6 40 10 100 10 100 0 100 0 100 25 0 41 -31 93
-66 110 -44 21 -112 19 -150 -4z m111 -51 c24 -27 17 -32 -46 -28 l-54 3 23
23 c27 27 53 28 77 2z"/>
<path d="M1357 514 c-4 -4 -7 -63 -7 -131 l0 -123 40 0 41 0 -3 128 -3 127
-30 3 c-17 2 -34 0 -38 -4z"/>
<path d="M1507 513 c-4 -3 -7 -62 -7 -130 l0 -123 40 0 40 0 0 74 c0 87 11
122 40 131 40 13 50 -10 50 -111 l0 -94 45 0 45 0 0 83 c0 96 -14 153 -40 167
-27 15 -83 12 -106 -5 -25 -19 -34 -19 -34 0 0 10 -10 15 -33 15 -19 0 -37 -3
-40 -7z"/>
<path d="M1882 503 c-82 -40 -84 -186 -2 -228 45 -23 130 -20 170 8 19 12 35
27 37 34 7 21 -47 27 -77 9 -37 -21 -73 -20 -93 2 -33 36 -22 42 84 42 l102 0
-6 37 c-7 44 -34 83 -68 100 -34 18 -108 16 -147 -4z m110 -50 c29 -26 21 -33
-37 -33 -59 0 -64 4 -38 32 20 22 51 23 75 1z"/>
</g>
</svg>
