<svg width="53" height="53" viewBox="0 0 53 53" fill="none" xmlns="http://www.w3.org/2000/svg">
<circle cx="26.5" cy="26.5" r="26.5" fill="#B8405E" fill-opacity="0.25"/>
<path d="M22.321 37.261C21.5863 37.261 21.0257 37.058 20.639 36.652C20.2523 36.246 20.059 35.6757 20.059 34.941V18.846C20.059 17.3187 20.8227 16.555 22.35 16.555H29.397C31.6783 16.555 33.4377 17.135 34.675 18.295C35.9123 19.4357 36.531 21.0307 36.531 23.08C36.531 25.1293 35.9123 26.734 34.675 27.894C33.4377 29.054 31.6783 29.634 29.397 29.634H24.554V34.941C24.554 35.6757 24.3607 36.246 23.974 36.652C23.6067 37.058 23.0557 37.261 22.321 37.261ZM24.554 26.154H28.643C31.021 26.154 32.21 25.1293 32.21 23.08C32.21 21.0693 31.021 20.064 28.643 20.064H24.554V26.154Z" fill="#B8405E"/>
</svg>
